<svg xmlns="http://www.w3.org/2000/svg" viewBox="0 0 357.04 45.51"><defs><style>.cls-1{fill:#fff;}</style></defs><g id="レイヤー_2" data-name="レイヤー 2"><g id="レイヤー_5" data-name="レイヤー 5"><path class="cls-1" d="M61.15,0H2.66A2.65,2.65,0,0,0,0,2.66V42.85a2.65,2.65,0,0,0,2.66,2.66H61.15a2.65,2.65,0,0,0,2.66-2.66V2.66A2.65,2.65,0,0,0,61.15,0ZM58.49,36.38l-16-15,16-12.81Zm-28-8.06a2.64,2.64,0,0,0,3.34,0l4.53-3.63L54.77,40.18H9L25.7,24.51l4.74,3.81ZM54,5.31,32.11,22.84,10.31,5.31ZM21.51,21.15,5.31,36.38V8.13Z"/><path class="cls-1" d="M103.26,10.3a3.73,3.73,0,0,0-3.64-1.92,3.6,3.6,0,0,0-2.4.79,5.08,5.08,0,0,0-1.48,2.53A21.37,21.37,0,0,0,95,16.29c-.14,1.88-.22,4.2-.22,6.93a66.74,66.74,0,0,0,.3,7.07A15.51,15.51,0,0,0,96,34.47a3.85,3.85,0,0,0,1.56,2,4.54,4.54,0,0,0,2.19.51,5.23,5.23,0,0,0,1.91-.35,3.22,3.22,0,0,0,1.54-1.41,9.35,9.35,0,0,0,1-3,27.38,27.38,0,0,0,.37-5h7.77a35.2,35.2,0,0,1-.48,5.94,13.63,13.63,0,0,1-1.81,4.91,9,9,0,0,1-3.72,3.29,14.11,14.11,0,0,1-6.23,1.19,14.56,14.56,0,0,1-7-1.41,9.44,9.44,0,0,1-4-4,17.84,17.84,0,0,1-1.78-6.32A73.92,73.92,0,0,1,87,22.68a74.48,74.48,0,0,1,.41-8.07,17.89,17.89,0,0,1,1.78-6.34,10,10,0,0,1,4-4.12,13.94,13.94,0,0,1,7-1.49A13.4,13.4,0,0,1,106.66,4a9.15,9.15,0,0,1,3.59,3.43,11.91,11.91,0,0,1,1.48,4.48,36.39,36.39,0,0,1,.3,4.5h-7.77A13.92,13.92,0,0,0,103.26,10.3Z"/><path class="cls-1" d="M116.64,14.61a18.1,18.1,0,0,1,1.78-6.34,10,10,0,0,1,4-4.12,14,14,0,0,1,7-1.49,14,14,0,0,1,7,1.49,9.89,9.89,0,0,1,4,4.12,17.89,17.89,0,0,1,1.79,6.34,77.25,77.25,0,0,1,.4,8.07,76.66,76.66,0,0,1-.4,8.09,17.84,17.84,0,0,1-1.79,6.32,9.36,9.36,0,0,1-4,4,14.62,14.62,0,0,1-7,1.41,14.62,14.62,0,0,1-7-1.41,9.44,9.44,0,0,1-4-4,18.05,18.05,0,0,1-1.78-6.32,74.07,74.07,0,0,1-.4-8.09A74.6,74.6,0,0,1,116.64,14.61Zm7.56,14.68a17.89,17.89,0,0,0,.75,4.42,5,5,0,0,0,1.62,2.49,5.34,5.34,0,0,0,5.56,0,5,5,0,0,0,1.62-2.49,18.37,18.37,0,0,0,.75-4.42q.19-2.73.19-6.61t-.19-6.58a18.93,18.93,0,0,0-.75-4.43,4.92,4.92,0,0,0-1.62-2.5,5.29,5.29,0,0,0-5.56,0,4.92,4.92,0,0,0-1.62,2.5,18.42,18.42,0,0,0-.75,4.43q-.2,2.7-.19,6.58T124.2,29.29Z"/><path class="cls-1" d="M165.66,29.8h.11V3.42h7.12V41.94H164l-9.49-27h-.11v27h-7.12V3.42h9Z"/><path class="cls-1" d="M201.11,9.79h-8.42V41.94h-7.77V9.79H176.5V3.42h24.61Z"/><path class="cls-1" d="M221.83,3.42,232,41.94h-8.09l-1.78-8.14H211.9l-1.78,8.14H202l10.2-38.52Zm-1,24-3.72-17.32H217l-3.72,17.32Z"/><path class="cls-1" d="M250.45,10.3a3.74,3.74,0,0,0-3.64-1.92,3.6,3.6,0,0,0-2.4.79,5.16,5.16,0,0,0-1.49,2.53,21.44,21.44,0,0,0-.75,4.59c-.15,1.88-.22,4.2-.22,6.93a66.74,66.74,0,0,0,.3,7.07,15.51,15.51,0,0,0,.92,4.18,3.85,3.85,0,0,0,1.56,2,4.54,4.54,0,0,0,2.19.51,5.23,5.23,0,0,0,1.91-.35,3.27,3.27,0,0,0,1.54-1.41,9.13,9.13,0,0,0,1-3,26.41,26.41,0,0,0,.38-5h7.77a35.2,35.2,0,0,1-.48,5.94,13.63,13.63,0,0,1-1.81,4.91,9,9,0,0,1-3.73,3.29,14.08,14.08,0,0,1-6.23,1.19,14.62,14.62,0,0,1-7-1.41,9.42,9.42,0,0,1-4-4,17.84,17.84,0,0,1-1.78-6.32,73.92,73.92,0,0,1-.41-8.09,74.48,74.48,0,0,1,.41-8.07,17.89,17.89,0,0,1,1.78-6.34,10,10,0,0,1,4-4.12,14,14,0,0,1,7-1.49A13.44,13.44,0,0,1,253.85,4a9.15,9.15,0,0,1,3.59,3.43,11.91,11.91,0,0,1,1.48,4.48,36.39,36.39,0,0,1,.3,4.5h-7.77A14.07,14.07,0,0,0,250.45,10.3Z"/><path class="cls-1" d="M286.79,9.79h-8.42V41.94H270.6V9.79h-8.41V3.42h24.6Z"/><path class="cls-1" d="M310.9,30.29a18.22,18.22,0,0,0,.19,2.67,5.91,5.91,0,0,0,.71,2.1,3.79,3.79,0,0,0,1.4,1.41,4.45,4.45,0,0,0,2.24.51,4.4,4.4,0,0,0,2.26-.51,3.81,3.81,0,0,0,1.38-1.41,6.11,6.11,0,0,0,.7-2.1,16.93,16.93,0,0,0,.19-2.67V3.42h7.77V30.29a15.43,15.43,0,0,1-1,6.07,9.61,9.61,0,0,1-2.75,3.8A9.2,9.2,0,0,1,320,42.05a21.5,21.5,0,0,1-4.58.49,23.74,23.74,0,0,1-4.59-.44,9.26,9.26,0,0,1-3.94-1.75,9,9,0,0,1-2.75-3.75,16.48,16.48,0,0,1-1-6.31V3.42h7.76Z"/><path class="cls-1" d="M339.18,31a13.27,13.27,0,0,0,.21,2.46,4.39,4.39,0,0,0,.81,1.86,4.12,4.12,0,0,0,1.59,1.19,6.35,6.35,0,0,0,2.51.43,5,5,0,0,0,3.21-1.16,4.33,4.33,0,0,0,1.43-3.59,6.31,6.31,0,0,0-.35-2.24,4.42,4.42,0,0,0-1.16-1.7,8.24,8.24,0,0,0-2.13-1.37A29.07,29.07,0,0,0,342,25.65a28.62,28.62,0,0,1-4.48-1.89,12,12,0,0,1-3.16-2.4,8.74,8.74,0,0,1-1.86-3.19A13.22,13.22,0,0,1,332,14q0-5.72,3.18-8.52c2.12-1.87,5-2.81,8.74-2.81a18.93,18.93,0,0,1,4.78.57,10.12,10.12,0,0,1,3.77,1.83A8.62,8.62,0,0,1,354.9,8.3a11.32,11.32,0,0,1,.9,4.72V14.1h-7.45a7.7,7.7,0,0,0-1-4.23,3.59,3.59,0,0,0-3.24-1.49,5.46,5.46,0,0,0-2.16.38,3.56,3.56,0,0,0-1.37,1,3.38,3.38,0,0,0-.71,1.43,7.7,7.7,0,0,0-.18,1.67,5.61,5.61,0,0,0,.75,3,6.82,6.82,0,0,0,3.24,2.23l6,2.59a18.49,18.49,0,0,1,3.61,2A9.76,9.76,0,0,1,355.55,25a7.41,7.41,0,0,1,1.16,2.67,14.74,14.74,0,0,1,.33,3.24q0,6.11-3.54,8.88t-9.85,2.78q-6.57,0-9.41-2.86c-1.89-1.91-2.83-4.64-2.83-8.21V29.91h7.77Z"/></g></g></svg>