<svg xmlns="http://www.w3.org/2000/svg" viewBox="0 0 104.06 288.89"><defs><style>.cls-1{fill:blue;}</style></defs><g id="レイヤー_2" data-name="レイヤー 2"><g id="レイヤー_2-2" data-name="レイヤー 2"><path class="cls-1" d="M11.09,8l0-.23,0-.22A10,10,0,0,1,15,1.23,6,6,0,0,1,18.55,0a4.09,4.09,0,0,1,3.81,1.94,4.51,4.51,0,0,1,.54,2.33c0,.2,0,.42,0,.64H21.21a3.29,3.29,0,0,0-.59-2.13,2.24,2.24,0,0,0-1.93-.95h-.27l-.51,0-.47.06A3.8,3.8,0,0,0,15.38,3a8.66,8.66,0,0,0-2.46,4.73,12.07,12.07,0,0,0-.3,2.5q0,2.5,1.44,3.39a2.5,2.5,0,0,0,1.36.37l.06,0q3.39,0,4.79-4.14H22a8.42,8.42,0,0,1-3.84,5.09,5.49,5.49,0,0,1-2.83.82,4.49,4.49,0,0,1-2.45-.61,4.86,4.86,0,0,1-2-4.09c0-.33,0-.83,0-1.52A10.28,10.28,0,0,1,11.09,8Z"/><path class="cls-1" d="M24.85,15.34l2.3-10.87h1.47l-.39,1.85a6.11,6.11,0,0,1,1.52-1.56,3.48,3.48,0,0,1,2-.54l-.4,1.91A3.69,3.69,0,0,0,29,6.84a3.22,3.22,0,0,0-1.27,2l-1.38,6.5Z"/><path class="cls-1" d="M39.08,11.93h1.6a6.2,6.2,0,0,1-2.29,3,4.49,4.49,0,0,1-2.7.75,2.75,2.75,0,0,1-2.85-1.91,5.51,5.51,0,0,1-.32-1.89,8,8,0,0,1,.19-1.64,10.71,10.71,0,0,1,.92-2.66,6.42,6.42,0,0,1,3.11-3.16A4.1,4.1,0,0,1,38.42,4a2.63,2.63,0,0,1,2.23,1.05c.08.1.2.29.38.58a5.68,5.68,0,0,1,.37,2.18,13.22,13.22,0,0,1-.31,2.69H34.33a6.74,6.74,0,0,0-.16,1.39c0,1.44.69,2.16,2.08,2.16a2.93,2.93,0,0,0,2.34-1.23A2.28,2.28,0,0,0,39.08,11.93ZM34.63,9.05h5.14A5.4,5.4,0,0,0,39.89,8a2.79,2.79,0,0,0-.22-1.16,1.77,1.77,0,0,0-1.77-1,3.17,3.17,0,0,0-2.59,1.69A4.61,4.61,0,0,0,34.63,9.05Z"/><path class="cls-1" d="M43.6,12.41a4.89,4.89,0,0,1,.62-1.49A4.44,4.44,0,0,1,47.52,9L48.36,9l.61,0a3.89,3.89,0,0,0,.51-.1,1.44,1.44,0,0,0,1.3-1.25,2.78,2.78,0,0,0,.06-.54c0-.92-.58-1.38-1.78-1.38a2.39,2.39,0,0,0-2.57,2.12H45a4.42,4.42,0,0,1,4.41-3.61c1.45,0,2.4.4,2.84,1.21A2.35,2.35,0,0,1,52.43,7l-1.32,6.19a1.37,1.37,0,0,0,0,.38c0,.3.11.47.32.51L52,14l-.27,1.33a2.15,2.15,0,0,1-1.1.21c-.77,0-1.15-.35-1.15-1.06a3.07,3.07,0,0,1,.06-.57,5.11,5.11,0,0,1-3.69,1.75,2.09,2.09,0,0,1-2.21-1.58,3,3,0,0,1-.16-.95,2.33,2.33,0,0,1,.06-.53Zm6.7-2.64a2.13,2.13,0,0,1-.92.38l-1.67.39c-1.48.35-2.32,1-2.53,2a2.52,2.52,0,0,0-.06.52c0,.74.45,1.1,1.34,1.1A4.11,4.11,0,0,0,49.14,13a2.25,2.25,0,0,0,.74-1.29Z"/><path class="cls-1" d="M55.07,14l1.68-7.86h-1.2l.37-1.79h1.2l.64-3h1.57l-.63,3h1.52l-.37,1.79H58.33l-1.49,6.9v.36a.76.76,0,0,0,.09.43.54.54,0,0,0,.43.25l.81-.08-.34,1.64-1.15.09c-1.07.07-1.61-.41-1.61-1.44Z"/><path class="cls-1" d="M63.17,4.51h1.62L62.48,15.34H60.86ZM64,.44h1.62l-.44,2.08H63.6Z"/><path class="cls-1" d="M68.53,7.11q1.68-2.92,4.41-2.93a2.88,2.88,0,0,1,2.93,1.87,5.17,5.17,0,0,1,.39,2.05,8.29,8.29,0,0,1-.21,1.79,9.65,9.65,0,0,1-1,2.77q-1.71,3-4.51,3t-3.16-3A8.53,8.53,0,0,1,68.53,7.11ZM69,9.89a8.18,8.18,0,0,0-.15,1.8c0,1.59.67,2.38,2,2.38s2.27-.78,3-2.33a8.28,8.28,0,0,0,.78-3.68q-.06-2.31-2-2.31a3,3,0,0,0-2.44,1.42A7.38,7.38,0,0,0,69,9.89Z"/><path class="cls-1" d="M78.16,15.34,80.47,4.47H82l-.34,1.58a4.2,4.2,0,0,1,1.78-1.51,3.07,3.07,0,0,1,1.49-.36,2.13,2.13,0,0,1,2.42,1.74,5.06,5.06,0,0,1,0,2l-1.57,7.38H84.14L85.58,8.6a4.7,4.7,0,0,0,.12-1.9,1.21,1.21,0,0,0-1.35-.9,2.6,2.6,0,0,0-1.41.4A4.23,4.23,0,0,0,81,9.12l-1.31,6.22Z"/><path class="cls-1" d="M71.48,43.61H84.75q9.72,0,15,5.12A11.12,11.12,0,0,1,104.06,58a28.7,28.7,0,0,1-.34,4.25L97.46,91.67l-10.88,0,6.07-28.89a19.18,19.18,0,0,0,.2-2.76q0-7.24-10.39-7.25H69.87q-12.3,0-14.5,10L11.61,268.1a16.65,16.65,0,0,0-.42,3.54q0,8.12,10.35,8.11H34.25q12.41,0,15.07-12.36l5.57-26.54,10.59,0-6.27,30.24q-3.83,17.83-26.66,17.84H19.29q-20.92,0-19.15-17.84L44.5,62.18q1.77-8,10.32-13.6A31,31,0,0,1,71.48,43.61Z"/></g></g></svg>