<svg xmlns="http://www.w3.org/2000/svg" viewBox="0 0 19.06 19.06"><g id="レイヤー_2" data-name="レイヤー 2"><g id="レイヤー_2-2" data-name="レイヤー 2"><path d="M13.49,19.06H5.57A5.58,5.58,0,0,1,0,13.49V5.57A5.58,5.58,0,0,1,5.57,0h7.92a5.58,5.58,0,0,1,5.57,5.57v7.92A5.58,5.58,0,0,1,13.49,19.06ZM5.57,1.78A3.79,3.79,0,0,0,1.78,5.57v7.92a3.79,3.79,0,0,0,3.79,3.79h7.92a3.79,3.79,0,0,0,3.79-3.79V5.57a3.79,3.79,0,0,0-3.79-3.79Z"/><circle cx="14.62" cy="4.45" r="1.19"/><path d="M9.53,14.46a4.93,4.93,0,1,1,4.93-4.93A4.93,4.93,0,0,1,9.53,14.46Zm0-8.08a3.15,3.15,0,1,0,3.15,3.15A3.15,3.15,0,0,0,9.53,6.38Z"/></g></g></svg>