<svg xmlns="http://www.w3.org/2000/svg" viewBox="0 0 77.01 62.68"><defs><style>.cls-1{fill:#fff;}</style></defs><g id="レイヤー_2" data-name="レイヤー 2"><g id="レイヤー_5" data-name="レイヤー 5"><path d="M5.06,48.13a4.17,4.17,0,0,1,1.86.37,3.44,3.44,0,0,1,1.21,1,3.76,3.76,0,0,1,.66,1.38A6,6,0,0,1,9,52.43a5.15,5.15,0,0,1-.33,1.92,3.56,3.56,0,0,1-.92,1.35,3.78,3.78,0,0,1-1.44.78,6.38,6.38,0,0,1-1.86.26H2.89v5.72H0V48.13Zm-.88,6.48a1.89,1.89,0,0,0,1.39-.52,2.17,2.17,0,0,0,.53-1.62,2.52,2.52,0,0,0-.46-1.65,1.87,1.87,0,0,0-1.54-.56H2.89v4.35Z"/><path d="M16.78,48.13l3.8,14.33h-3l-.67-3H13.09l-.66,3h-3l3.79-14.33Zm-.38,8.93L15,50.62h0l-1.39,6.44Z"/><path d="M27.86,51.56a2.73,2.73,0,0,0-.29-.77,1.94,1.94,0,0,0-.52-.58A1.18,1.18,0,0,0,26.3,50a1.57,1.57,0,0,0-1.51,1.16A11.66,11.66,0,0,0,24.33,55c0,.86,0,1.64.08,2.33a9.58,9.58,0,0,0,.29,1.78,2.64,2.64,0,0,0,.61,1.13,1.37,1.37,0,0,0,1,.39,1.44,1.44,0,0,0,.57-.14,2.12,2.12,0,0,0,.59-.43,2.16,2.16,0,0,0,.45-.71,2.6,2.6,0,0,0,.18-1V56.86H26.2V54.73h4.68v7.73H28.75V61.14h0a3.07,3.07,0,0,1-1.25,1.19,4,4,0,0,1-1.76.35,4.41,4.41,0,0,1-2.16-.46,3.18,3.18,0,0,1-1.31-1.42,7.57,7.57,0,0,1-.63-2.38,31.42,31.42,0,0,1-.16-3.28A19.73,19.73,0,0,1,21.67,52a6.37,6.37,0,0,1,.8-2.28A3.68,3.68,0,0,1,24,48.31a5.14,5.14,0,0,1,2.31-.46A4.35,4.35,0,0,1,29.67,49a4.91,4.91,0,0,1,1,3.37H28A4,4,0,0,0,27.86,51.56Z"/><path d="M40.76,50.5H35.64v3.37h4.81v2.37H35.64v3.85H41v2.37H32.75V48.13h8Z"/><path d="M55.61,50.5H52.48v12H49.59v-12H46.46V48.13h9.15Z"/><path d="M56.71,52.29a6.63,6.63,0,0,1,.66-2.35,3.7,3.7,0,0,1,1.47-1.54,6.37,6.37,0,0,1,5.18,0,3.66,3.66,0,0,1,1.48,1.54,6.63,6.63,0,0,1,.66,2.35,30.28,30.28,0,0,1,0,6,6.69,6.69,0,0,1-.66,2.35A3.51,3.51,0,0,1,64,62.16a6.71,6.71,0,0,1-5.18,0,3.55,3.55,0,0,1-1.47-1.5,6.69,6.69,0,0,1-.66-2.35,30.28,30.28,0,0,1,0-6Zm2.81,5.47a6.52,6.52,0,0,0,.28,1.64,1.88,1.88,0,0,0,.6.93,1.7,1.7,0,0,0,1,.29,1.73,1.73,0,0,0,1-.29,1.88,1.88,0,0,0,.6-.93,7,7,0,0,0,.28-1.64c0-.68.07-1.5.07-2.46s0-1.78-.07-2.45a7.2,7.2,0,0,0-.28-1.65,1.8,1.8,0,0,0-.6-.93,1.67,1.67,0,0,0-1-.29,1.64,1.64,0,0,0-1,.29,1.8,1.8,0,0,0-.6.93,6.69,6.69,0,0,0-.28,1.65c-.05.67-.07,1.48-.07,2.45S59.47,57.08,59.52,57.76Z"/><path d="M73.08,48.13a4.2,4.2,0,0,1,1.86.37,3.44,3.44,0,0,1,1.21,1,3.76,3.76,0,0,1,.66,1.38,6,6,0,0,1,.2,1.58,5.15,5.15,0,0,1-.33,1.92,3.56,3.56,0,0,1-.92,1.35,3.78,3.78,0,0,1-1.44.78,6.38,6.38,0,0,1-1.86.26H70.91v5.72H68V48.13Zm-.88,6.48a1.89,1.89,0,0,0,1.39-.52,2.17,2.17,0,0,0,.53-1.62,2.52,2.52,0,0,0-.46-1.65,1.87,1.87,0,0,0-1.54-.56H70.91v4.35Z"/><polygon points="38.22 0 12.42 33.62 64.01 33.62 38.22 0"/><polygon class="cls-1" points="38.22 8.74 12.42 42.37 64.01 42.37 38.22 8.74"/></g></g></svg>