<svg xmlns="http://www.w3.org/2000/svg" viewBox="0 0 262.01 116.52"><defs><style>.cls-1{fill:#fff;}</style></defs><g id="レイヤー_2" data-name="レイヤー 2"><g id="レイヤー_1-2" data-name="レイヤー 1"><path class="cls-1" d="M8.53,9.33c-.1.6-.21,1.18-.35,1.7a10,10,0,0,1-1.07,2.46c-.11.19-.19.28-.27.28s-.15-.09-.31-.28a3.79,3.79,0,0,0-.9-.86,7.67,7.67,0,0,0,1.26-2.7,12.47,12.47,0,0,0,.34-3.19c0-1.14,0-1.58,0-1.75s0-.17.15-.17.53,0,1.8,0h2.52c1.27,0,1.7,0,1.78,0s.17,0,.17.17,0,.41,0,1.26V7.94c0,.82,0,1.15,0,1.25s0,.17-.17.17-.51,0-1.78,0Zm.29-5.87a12.26,12.26,0,0,1-2,1.44,1,1,0,0,1-.36.15c-.1,0-.15-.12-.26-.36a3.89,3.89,0,0,0-.58-1A9.24,9.24,0,0,0,9.29.81,3.25,3.25,0,0,0,9.74,0c.52.08.94.16,1.44.27.12,0,.2.07.2.2s-.05.14-.15.2A8.35,8.35,0,0,0,14.61,3a4,4,0,0,0-.52,1c-.09.26-.14.37-.23.37a.88.88,0,0,1-.34-.14,9.16,9.16,0,0,1-1.31-.84v.75c0,.15,0,.17-.17.17s-.28,0-1.06,0h-.91c-.76,0-1,0-1.06,0s-.19,0-.19-.17Zm5.1,8.78c0,1.36,0,1.73,0,1.83s0,.15-.17.15H12.61c-.15,0-.17,0-.17-.15v-.36H9.92v.47c0,.15,0,.17-.18.17H8.62c-.15,0-.17,0-.17-.17s0-.46,0-1.84v-.89c0-.72,0-1,0-1.16s0-.17.17-.17.47,0,1.64,0h1.89c1.15,0,1.52,0,1.63,0s.17,0,.17.17,0,.42,0,1ZM12.16,7.59H8.7l0,.63h3.51ZM8.71,5.94v.61h3.45V5.94ZM11,3.1h.87a9.86,9.86,0,0,1-1.39-1.42A11.81,11.81,0,0,1,9.23,3.09H11ZM9.92,11.29v1.28h2.52V11.29Zm5-7.55a14.32,14.32,0,0,0-.11-2.31c.56,0,1.05.05,1.59.11q.21,0,.21.18a1.46,1.46,0,0,1-.1.34,12.46,12.46,0,0,0,0,1.67V8c0,1.33,0,2,0,2.06s0,.19-.15.19H15.08c-.14,0-.16,0-.16-.19S15,9.36,15,8Zm4.51,5.35c0,1.09,0,2.33,0,3.11s-.11,1.21-.56,1.52-.89.39-2.36.39c-.46,0-.46,0-.57-.5a3.45,3.45,0,0,0-.5-1.18,15.74,15.74,0,0,0,1.68.08c.5,0,.69-.13.69-.63V2.53A13,13,0,0,0,17.74.3,14.93,14.93,0,0,1,19.4.41c.15,0,.23.09.23.17a1.13,1.13,0,0,1-.08.34,5,5,0,0,0-.09,1.58Z"/><path class="cls-1" d="M27.61,10.9a2.4,2.4,0,0,0,1.28,1.3,9.14,9.14,0,0,0,2.88.31c2,0,4.42-.1,6.74-.33a2.91,2.91,0,0,0-.42,1.2c-.08.5-.08.5-.58.53-2,.11-3.86.14-5.49.14a10.53,10.53,0,0,1-3.65-.44,3,3,0,0,1-1.52-1.38c-.49.46-1,.93-1.58,1.37a1.49,1.49,0,0,0-.31.31.26.26,0,0,1-.23.14c-.07,0-.16-.06-.22-.19a13.14,13.14,0,0,1-.64-1.46,7.68,7.68,0,0,0,.92-.49,9.4,9.4,0,0,0,1.29-1V7.45h-.75c-.82,0-1,0-1.12,0S24,7.47,24,7.3V6.11c0-.15,0-.17.19-.17s.3,0,1.12,0h1c.84,0,1.08,0,1.17,0s.17,0,.17.17,0,.53,0,1.48ZM25.35.62a.35.35,0,0,1,.19-.09.25.25,0,0,1,.15.09,13.84,13.84,0,0,1,1.95,2.31c.11.14.08.17-.09.31l-.88.69c-.09.08-.14.11-.18.11s-.1,0-.14-.13A12.18,12.18,0,0,0,24.43,1.5c-.11-.13-.09-.16.08-.28Zm5.16,5.74c-1.51,0-2,0-2.12,0s-.19,0-.19-.15V5.15c0-.16,0-.18.19-.18S29,5,30.51,5h1.73V3.45h-2c-.19.32-.41.65-.63,1s-.23.32-.33.32-.18-.08-.34-.22A3.66,3.66,0,0,0,28,3.93a8.83,8.83,0,0,0,1.56-2.46,5.17,5.17,0,0,0,.26-1,9.87,9.87,0,0,1,1.37.41c.16.06.24.11.24.2s-.05.14-.13.22a1.65,1.65,0,0,0-.31.55l-.09.23h1.32V1.81A8.4,8.4,0,0,0,32.13.16c.6,0,1.13,0,1.59.07.14,0,.24.08.24.18a.48.48,0,0,1-.08.26,3.1,3.1,0,0,0-.09,1.06v.36H35c1.38,0,1.83,0,1.92,0s.17,0,.17.19V3.31c0,.15,0,.17-.17.17s-.54,0-1.92,0H33.79V5h1.84c1.51,0,2,0,2.13,0S38,5,38,5.15V6.24c0,.14,0,.15-.19.15s-.62,0-2.13,0Zm4.1,1c1.37,0,1.86,0,2,0s.17,0,.17.17,0,.41,0,1.2v1.5c0,.79,0,1.11,0,1.2s0,.17-.17.17-.58,0-2,0H31.52c-1.37,0-1.85,0-2,0s-.17,0-.17-.17,0-.41,0-1.2V8.67c0-.79,0-1.09,0-1.2s0-.17.17-.17.59,0,2,0Zm.52,1.33H31v1.51h4.17Z"/><path class="cls-1" d="M47.82,1.64A5.9,5.9,0,0,0,47.63.5a15.88,15.88,0,0,1,1.82.22c.27,0,.44.15.44.29a.66.66,0,0,1-.14.36,1.57,1.57,0,0,0-.12.46c0,.2,0,.4,0,1,1.69-.06,3.29-.07,4.79-.07.19,0,.22,0,.24.23,0,.39,0,.79,0,1.18,0,.18-.08.22-.27.21-1.62,0-3.13,0-4.76,0,0,1,0,2,0,2.9a4.74,4.74,0,0,1,.23,1.54,5.82,5.82,0,0,1-2.77,5,1.51,1.51,0,0,1-.61.29.93.93,0,0,1-.47-.23,3.36,3.36,0,0,0-1.18-.62A5.24,5.24,0,0,0,48,9.83a1.8,1.8,0,0,1-1.46.62,2.16,2.16,0,0,1-2.17-2.39,2.27,2.27,0,0,1,2.35-2.34A1.91,1.91,0,0,1,47.91,6c0-.55,0-1.08,0-1.6-2,.11-4.16.3-5.39.47-.34,0-.59.19-.73.19s-.22-.06-.27-.22a12.22,12.22,0,0,1-.39-1.57A9.88,9.88,0,0,0,43,3.24l4.84-.31C47.83,2.45,47.83,2.06,47.82,1.64ZM45.82,8a1,1,0,0,0,1,1.06,1,1,0,0,0,1.06-1.07.94.94,0,0,0-1-1A1,1,0,0,0,45.82,8Z"/><path class="cls-1" d="M63.76,6.61a4.71,4.71,0,0,1,2.48-.7,3.62,3.62,0,0,1,3.87,3.74c0,2.61-2.1,4.28-5.44,4.28-2,0-3.15-.85-3.15-2.3a2.07,2.07,0,0,1,2.2-1.9A2.84,2.84,0,0,1,66.65,12a2.36,2.36,0,0,0,1.59-2.37,2.28,2.28,0,0,0-2.45-2.36,6.33,6.33,0,0,0-4,1.66c-.45.4-.89.85-1.36,1.32-.11.11-.18.17-.26.17a.38.38,0,0,1-.24-.14,7.3,7.3,0,0,1-.92-1c-.09-.13,0-.24.08-.36a37.14,37.14,0,0,0,3.7-3.45c1-1,1.7-1.77,2.42-2.66-.94.17-2,.39-3,.59a4.24,4.24,0,0,0-.66.19,1.18,1.18,0,0,1-.31.08.34.34,0,0,1-.34-.27,7.49,7.49,0,0,1-.55-1.68,7.81,7.81,0,0,0,1.45,0c1-.1,2.32-.3,3.54-.53A4.16,4.16,0,0,0,66.2,1a1,1,0,0,1,.29-.12.6.6,0,0,1,.36.12A6,6,0,0,1,67.9,2a.56.56,0,0,1,.17.38.41.41,0,0,1-.27.37,2.3,2.3,0,0,0-.68.5C66,4.34,64.93,5.43,63.75,6.57Zm0,4.45c-.45,0-.75.26-.75.59,0,.48.42.81,1.36.81a4,4,0,0,0,.72-.06C64.9,11.54,64.44,11.06,63.78,11.06Z"/><path class="cls-1" d="M75.78,3.51c.21.05.24.08.22.25a13.41,13.41,0,0,1-.53,3.41c0,.16-.08.14-.25.07l-.75-.32c-.2-.07-.21-.15-.17-.31a12.6,12.6,0,0,0,.5-3.16c0-.16,0-.14.25-.1Zm.63-1.08A14.15,14.15,0,0,0,76.28.08a13.29,13.29,0,0,1,1.61.11c.16,0,.25.08.25.15a.76.76,0,0,1-.08.32A6,6,0,0,0,78,2.39v9.06c0,1.76,0,2.65,0,2.73s0,.18-.17.18H76.55c-.16,0-.17,0-.17-.18s0-1,0-2.72Zm2.35.41c.17-.06.22,0,.28.09a10.49,10.49,0,0,1,.64,1.86c0,.15,0,.18-.17.26l-.65.24c-.21.08-.25.08-.28-.1A12.62,12.62,0,0,0,78,3.31c-.06-.18,0-.21.15-.27Zm2.86,3.55c-1.52,0-2,0-2.12,0s-.18,0-.18-.17V5.35c0-.16,0-.17.18-.17s.6,0,2.12,0h1.31V4.49h-.78c-1.41,0-1.86,0-2,0s-.17,0-.17-.18V3.56c0-.16,0-.18.17-.18s.56,0,2,0h.78V2.71h-1c-1.47,0-2,0-2.06,0s-.17,0-.17-.18V1.73c0-.17,0-.19.17-.19s.59,0,2.06,0h1c0-.55-.05-1-.11-1.53a12.68,12.68,0,0,1,1.54.11c.17,0,.25.09.25.15a1.64,1.64,0,0,1-.11.41,3.24,3.24,0,0,0-.06.86h1.5c1.45,0,1.94,0,2,0s.19,0,.19.19v.84c0,.16,0,.18-.19.18s-.59,0-2,0h-1.5v.71H85.5c1.39,0,1.86,0,2,0s.17,0,.17.18v.78c0,.17,0,.18-.17.18s-.56,0-2,0H84.44v.72h1.93c1.5,0,2,0,2.11,0s.17,0,.17.17v.89c0,.17,0,.17-.17.17s-.61,0-2.11,0Zm5.75,4c0,.78,0,1.68,0,2.16a1.64,1.64,0,0,1-.4,1.31c-.27.24-.64.36-1.78.4-.48,0-.5,0-.61-.49a3.44,3.44,0,0,0-.36-1,10.35,10.35,0,0,0,1.06.05c.45,0,.55-.15.55-.47v-.62H81.63v.72c0,1.09,0,1.6,0,1.68s0,.19-.18.19H80.26c-.17,0-.19,0-.19-.19s0-.54,0-1.65V8.89c0-1.09,0-1.59,0-1.68s0-.19.19-.19.56,0,1.93,0H85.3c1.37,0,1.82,0,1.93,0s.17,0,.17.19,0,.67,0,1.82ZM81.63,8.23V9h4.23V8.23Zm4.23,2.53V10H81.63v.76Z"/><path class="cls-1" d="M94.73,4.54a7.25,7.25,0,0,1,.74.37c.16.1.22.17.22.24s0,.11-.11.17a1.3,1.3,0,0,0-.28.29A4.77,4.77,0,0,1,93.63,7a1.29,1.29,0,0,1-.32.14c-.11,0-.16-.09-.25-.34a2.28,2.28,0,0,0-.44-.72,3.53,3.53,0,0,0,1.76-1.21,1.15,1.15,0,0,0,.17-.33c-1.09,0-1.49,0-1.57,0s-.16,0-.16-.17V3.48c0-.14,0-.16.16-.16s.55,0,1.89,0h.89V2.53H95.3c-1.2,0-1.59,0-1.68,0s-.17,0-.17-.17V1.51c0-.15,0-.17.17-.17s.48,0,1.68,0h.46A7.43,7.43,0,0,0,95.68.06c.5,0,1,.06,1.39.11.15,0,.24.06.24.14a.55.55,0,0,1-.07.25,2,2,0,0,0-.08.81h.37c1.2,0,1.58,0,1.67,0s.17,0,.17.17v.88c0,.15,0,.17-.17.17s-.47,0-1.67,0h-.37v.81h.62c1.34,0,1.8,0,1.89,0s.17,0,.17.16V4.4c0,.15,0,.17-.17.17s-.47,0-1.45,0v.54c0,.18,0,.25.12.3a.74.74,0,0,0,.25,0,.23.23,0,0,0,.22-.11.9.9,0,0,0,.1-.43,2.9,2.9,0,0,0,.65.21c.36.08.39.1.3.47a1.11,1.11,0,0,1-.27.53c-.19.21-.42.28-1.25.28S97.27,6.24,97.11,6c0,.11,0,.25,0,.44v.6h.23c1.12,0,1.48,0,1.58,0s.17,0,.17.18v.87c0,.15,0,.17-.17.17s-.46,0-1.58,0h-.22v.89c.78-.1,1.56-.19,2.34-.33a3.17,3.17,0,0,0-.12.75l0,.2A6.54,6.54,0,0,0,101,7.3c-.33-.34-.66-.67-1-1-.06-.07-.09-.1-.09-.13s0-.09.11-.17l.53-.58c.16-.15.17-.18.28-.09l.59.53A12.68,12.68,0,0,0,101.56,4c-.86,0-1.13,0-1.22,0s-.17,0-.17-.17V2.76c0-.16,0-.16.17-.16s.37,0,1.26,0c0-.27,0-.52,0-.8a12.42,12.42,0,0,0-.08-1.76c.5,0,.87,0,1.34.08.19,0,.3.09.3.17a.93.93,0,0,1-.1.34A3.62,3.62,0,0,0,103,1.75V2.6h.75l1.32,0c.14,0,.17,0,.17.19,0,.62,0,1.16,0,1.66,0,.78,0,2,.14,2.92.14,1.42.26,1.71.45,1.71s.22-.29.3-2a2.54,2.54,0,0,0,.7.45c.31.16.29.21.26.57-.2,2.19-.67,2.6-1.39,2.6s-1.23-.87-1.48-2.06a22.89,22.89,0,0,1-.37-4.6l-.91,0A15.09,15.09,0,0,1,102.51,7a15.92,15.92,0,0,1,1.15,1.42c0,.08.1.14.1.19a.35.35,0,0,1-.11.19l-.63.62c-.17.16-.2.17-.31,0-.25-.34-.48-.67-.73-1a8.92,8.92,0,0,1-1.31,2c-.16.18-.24.28-.33.28s-.17-.1-.36-.28a3.21,3.21,0,0,0-.76-.52,2.07,2.07,0,0,1-.47.11c-1.56.25-3.12.47-4.49.58a2.34,2.34,0,0,0-.69.11,1,1,0,0,1-.28.07c-.09,0-.17-.07-.2-.21a8.52,8.52,0,0,1-.22-1.31c.59,0,1,0,1.68,0l1.16-.08v-1h-.24c-1.12,0-1.48,0-1.57,0s-.17,0-.17-.17V7.21c0-.16,0-.18.17-.18s.45,0,1.57,0h.27V6.49a7,7,0,0,0-.06-1.06c.39,0,1,0,1.31.07v-1Zm1.07,7c.22.11.22.13.16.3a10.37,10.37,0,0,1-1.78,2.42.24.24,0,0,1-.16.09.41.41,0,0,1-.18-.09l-.91-.69c-.2-.15-.2-.19-.06-.3a6.7,6.7,0,0,0,1.68-2.13c.08-.14.1-.13.33,0Zm1.8,2.7c-.22,0-.25,0-.25-.15a15.5,15.5,0,0,0-.24-2.42c0-.17,0-.2.24-.22l1-.08c.2,0,.22,0,.25.16a14.2,14.2,0,0,1,.31,2.41c0,.16,0,.21-.22.22Zm3.63-.08c-.22,0-.25,0-.28-.14a11.86,11.86,0,0,0-.64-2.32c-.06-.16,0-.2.19-.23l1-.18c.19,0,.24,0,.31.13a12.27,12.27,0,0,1,.75,2.29c0,.16,0,.2-.2.25Zm3.26-3.1c.19-.09.23-.09.34,0a13.4,13.4,0,0,1,1.65,2.23c.08.14.07.18-.12.29l-1,.56c-.19.1-.24.1-.3,0a12.48,12.48,0,0,0-1.54-2.36c-.1-.12-.1-.17.1-.26Z"/><path class="cls-1" d="M118.8,10.9c0,.17-.09.25-.3.28a8.5,8.5,0,0,1-1.1.08c-.14,0-.21-.09-.21-.25,0-.56,0-1.34,0-1.9-1.39.72-1.89,1.32-1.89,2.07s.53,1.08,2.17,1.08a26.88,26.88,0,0,0,3.88-.31c.14,0,.21,0,.22.17a6.78,6.78,0,0,1,.14,1.28c0,.18,0,.29-.17.29a28,28,0,0,1-3.87.2c-2.56,0-3.91-.76-3.91-2.57,0-1.49.93-2.59,3.29-3.8,0-.8-.24-1.11-.94-1.08A3.79,3.79,0,0,0,114,7.56a22.72,22.72,0,0,0-1.56,1.7c-.08.1-.12.14-.19.14a.31.31,0,0,1-.17-.11,7.65,7.65,0,0,1-.89-1,.33.33,0,0,1-.06-.15c0-.06,0-.1.11-.17a15.69,15.69,0,0,0,3.26-3.86c-.73,0-1.58,0-2.5,0-.14,0-.18-.08-.21-.25s-.11-.82-.16-1.29a33.07,33.07,0,0,0,3.59,0,12.77,12.77,0,0,0,.47-1.34,3.94,3.94,0,0,0,.1-.95,9.39,9.39,0,0,1,1.78.44.26.26,0,0,1,.19.26.32.32,0,0,1-.11.24,1.14,1.14,0,0,0-.27.37c-.09.22-.17.42-.35.84A24.59,24.59,0,0,0,119.84,2c.18,0,.22,0,.25.16a5.36,5.36,0,0,1,.16,1.12c0,.15,0,.22-.27.25-1.16.17-2.51.34-3.64.47a18.83,18.83,0,0,1-1.17,1.73v0a3.1,3.1,0,0,1,1.56-.49,1.72,1.72,0,0,1,1.9,1.69c.61-.28,1.5-.69,2.3-1.09A4.84,4.84,0,0,0,122.12,5a9.31,9.31,0,0,1,1.09,1.38.58.58,0,0,1,.13.34c0,.13-.08.19-.24.22a5.26,5.26,0,0,0-.95.23c-1,.36-2,.7-3.35,1.25Z"/><path class="cls-1" d="M136.87,3.59c-.89,0-1.84.06-2.76.12-.19,0-.25-.09-.28-.23a13.24,13.24,0,0,1-.28-1.69c1.06.08,1.91.11,3.16.11h6.69a3.44,3.44,0,0,0,1.08-.09,1.31,1.31,0,0,1,.29-.11.51.51,0,0,1,.36.22,7.29,7.29,0,0,1,.94,1,.43.43,0,0,1,.12.28.38.38,0,0,1-.22.33,2,2,0,0,0-.42.45,13.3,13.3,0,0,1-2.74,3,.45.45,0,0,1-.33.14.62.62,0,0,1-.37-.15,3.37,3.37,0,0,0-1.3-.64,11,11,0,0,0,2.79-2.73Zm.87,6.08A7.25,7.25,0,0,0,138.51,6a5.87,5.87,0,0,0-.16-1.47,17.68,17.68,0,0,1,2,.3c.2,0,.27.15.27.3a.8.8,0,0,1-.08.28,1.31,1.31,0,0,0-.14.64,9.49,9.49,0,0,1-.92,4.28,8.21,8.21,0,0,1-2.84,3.11.8.8,0,0,1-.44.15.41.41,0,0,1-.31-.14,4.55,4.55,0,0,0-1.42-.79A6.9,6.9,0,0,0,137.74,9.67Z"/><path class="cls-1" d="M151.83,5.18a.28.28,0,0,1,.41.11,8.3,8.3,0,0,1,1.34,2.3,1.17,1.17,0,0,1,.06.24c0,.09-.06.14-.18.22a6.47,6.47,0,0,1-1,.48c-.22.08-.31,0-.39-.22A9.19,9.19,0,0,0,150.6,5.8C151.13,5.5,151.51,5.33,151.83,5.18Zm8.57.2c.12.09.2.17.2.27s0,.17-.17.28a2,2,0,0,0-.47.79,18.8,18.8,0,0,1-2.36,4.15,12.21,12.21,0,0,1-3.21,3,.69.69,0,0,1-.37.17.35.35,0,0,1-.25-.11,3.52,3.52,0,0,0-1.33-.65A13.56,13.56,0,0,0,156.18,10a15.72,15.72,0,0,0,2.11-3.75,5.65,5.65,0,0,0,.36-1.66A7.64,7.64,0,0,1,160.4,5.38Zm-5.42-1c.18-.08.28-.06.41.12a9.12,9.12,0,0,1,1.2,2.28c.08.23,0,.31-.16.42a6.42,6.42,0,0,1-1.07.49c-.17.06-.24,0-.31-.24A10.6,10.6,0,0,0,153.74,5C154.36,4.71,154.72,4.54,155,4.43Z"/><path class="cls-1" d="M169.87,1c.19,0,.28.12.28.25s-.1.43-.1.65,0,.69.07,1a22.36,22.36,0,0,0,.5,2.68l2.22-1.19a3.8,3.8,0,0,0,1.07-.84A7.85,7.85,0,0,1,175.05,5a.65.65,0,0,1,.11.33c0,.15-.09.28-.31.31a7.12,7.12,0,0,0-1.5.46A21.92,21.92,0,0,0,169.69,8c-1.36.89-1.84,1.62-1.84,2.35,0,.92.68,1.31,2.48,1.31a28.17,28.17,0,0,0,4.75-.35c.17,0,.25,0,.28.18a12.86,12.86,0,0,1,.16,1.45c0,.17-.1.25-.28.27a33,33,0,0,1-4.65.23c-3,0-4.51-1-4.51-3,0-1.73,1.14-2.87,3-4a22.41,22.41,0,0,1-.81-3.8,6.87,6.87,0,0,0-.41-1.81A9,9,0,0,1,169.87,1Z"/><path class="cls-1" d="M182.33,4.57c0-.39,0-.48,0-.58a.41.41,0,0,1,0-.12,7,7,0,0,1-.79.73c-.17.13-.27.2-.35.2s-.15-.09-.26-.28a2.46,2.46,0,0,0-.52-.68,5.49,5.49,0,0,0,1.52-1.36,2.45,2.45,0,0,0,.29-.56l.66.12s0-.15,0-.31c-1.31,0-1.76,0-1.85,0s-.19,0-.19-.17V.92c0-.16,0-.17.19-.17s.54,0,1.87,0a6.88,6.88,0,0,0-.08-.72c.47,0,.84,0,1.25.08.14,0,.2.08.2.16s0,.12-.08.21a1,1,0,0,0-.06.27h1.09a6.7,6.7,0,0,0-.07-.72c.45,0,.82,0,1.24.08.14,0,.22.08.22.16s-.06.12-.09.21a.72.72,0,0,0-.06.27c1.1,0,1.52,0,1.62,0s.17,0,.17.17v.67c0,.16,0,.17-.17.17l-1.62,0c0,.16,0,.27,0,.31s0,.19-.18.19h-1c-.15,0-.17,0-.17-.19s0-.15,0-.31h-1.08c0,.16,0,.27,0,.31s0,.19-.17.19h-.5s0,0,0,.08-.09.14-.17.22h2.86c1.09,0,1.45,0,1.54,0s.19,0,.2.09A5.65,5.65,0,0,0,189.49.81a2.71,2.71,0,0,0,.28-.76c.45.07.87.17,1.28.26.09,0,.17.1.17.17a.22.22,0,0,1-.1.19,1.32,1.32,0,0,0-.32.47l-.1.17h1.81c1.42,0,1.9,0,2,0s.15,0,.15.17v.78c0,.16,0,.17-.15.17h-.91a6.1,6.1,0,0,1-1.28,1.81A10.65,10.65,0,0,0,195,5a3.1,3.1,0,0,0-.47,1c-.14.44-.14.42-.56.31a9.5,9.5,0,0,1-2.73-1.17,8,8,0,0,1-2.35,1c-.42.11-.42.1-.58-.31a3.12,3.12,0,0,0-.42-.79,9.67,9.67,0,0,0,2.31-.67,7.8,7.8,0,0,1-.91-1.06l-.37.34c-.16.12-.25.19-.33.19s-.16-.1-.25-.28a3,3,0,0,0-.39-.53l0,.71a6.43,6.43,0,0,1-.23,1.59,1.08,1.08,0,0,1-.81.81,3.11,3.11,0,0,1-.86.08c-.34,0-.39,0-.43-.29l-.05-.21a.25.25,0,0,1-.13,0c-.09,0-.28,0-1,0h-.83c-.73,0-.93,0-1,0s-.18,0-.18-.17,0-.17,0-.56Zm-1.42,9.06c-.19-.13-.2-.17-.09-.28a6,6,0,0,0,1.34-1.73c.07-.16.11-.16.31-.06l.89.4c.19.09.2.11.14.28a6.91,6.91,0,0,1-1.31,2c-.11.11-.14.11-.31,0Zm1.76-10.2-.34.42s.06,0,.15,0,.3,0,1,0h.83c.73,0,.92,0,1,0s.18,0,.18.17,0,.19,0,.58V5a3.94,3.94,0,0,0,.5,0c.23,0,.34,0,.39-.27a8,8,0,0,0,.15-1.31Zm7.56,8.2c.18,0,.22,0,.3.1a6.19,6.19,0,0,1,.59,1.15c0,.09,0,.11,0,.14h.55c.4,0,.54-.06.68-.45a4.4,4.4,0,0,0,.2-1.11h-7.28c-1.62,0-2.34,0-2.49,0s-.19,0-.19-.17,0-.53,0-1.53V7.88c0-1,0-1.42,0-1.52s0-.17.19-.17.87,0,2.49,0H191c1.5,0,2,0,2.09,0s.19,0,.19.17V7c0,.17,0,.19-.19.19s-.59,0-2.09,0h-2.39v.58h1.66c1.48,0,2,0,2.09,0s.18,0,.18.17v.53c0,.14,0,.16-.18.16s-.61,0-2.09,0h-1.66v.57h1.67c1.48,0,2,0,2.09,0s.19,0,.19.17v.5c0,.17,0,.19-.19.19s-.61,0-2.09,0h-1.67v.61h3.25c1.53,0,2.07,0,2.17,0s.21,0,.18.18-.06.53-.09.8a9.4,9.4,0,0,1-.33,1.68c-.28.94-.95,1.14-1.89,1.14h-.87c-.25,0-.26,0-.36-.47a2.88,2.88,0,0,0-.17-.56l-.4.12c-.19.06-.21.06-.27-.11a6.42,6.42,0,0,0-.53-1.18c-.09-.16-.08-.18.14-.24ZM183.33,5h1.23v-.5h-1.23Zm3.88,2.79V7.17h-3.1v.58Zm0,1.37V8.55h-3.1v.57Zm0,1.41V9.92h-3.1v.61ZM185.46,12c.17,0,.22,0,.25.15a11.66,11.66,0,0,1,.27,1.72c0,.17,0,.2-.21.22l-1.09.09c-.21,0-.23,0-.25-.14a13.14,13.14,0,0,0-.17-1.76c0-.18,0-.21.22-.22Zm2.39-.11c.26,0,.3,0,.36.14a8.32,8.32,0,0,1,.42,1.42c0,.17,0,.2-.17.23l-1,.17c-.21,0-.23,0-.26-.12a10.34,10.34,0,0,0-.36-1.5c0-.16,0-.2.16-.23Zm2.21-9.47a5.41,5.41,0,0,0,1.17,1.17,4.43,4.43,0,0,0,.94-1.17Z"/><path class="cls-1" d="M207.45,1.67a.42.42,0,0,1,.12.25.31.31,0,0,1-.22.29,3.45,3.45,0,0,0-.75.55c-1.34,1.2-3,2.81-4.25,4.06-.14.17-.21.26-.21.34s.07.17.21.28a43.1,43.1,0,0,1,5.8,4.91c.06.08.11.14.11.2s0,.11-.11.19c-.36.39-.81.84-1.08,1.08-.09.07-.15.12-.22.12s-.1,0-.18-.14A39.23,39.23,0,0,0,201,8.53c-.59-.45-.83-.79-.83-1.31s.28-.86.77-1.37c1.32-1.44,2.62-2.73,4-4.2a4.54,4.54,0,0,0,.84-1.17A12.35,12.35,0,0,1,207.45,1.67Z"/><path class="cls-1" d="M225.33.09c.16-.09.22-.07.33,0a6.76,6.76,0,0,1,1,1c.11.14.07.19-.07.3l-.36.23c.9,0,1.24,0,1.32,0s.17,0,.17.16v1c0,.16,0,.17-.17.17s-.61,0-2.09,0h-1.53a13.14,13.14,0,0,0,.66,3,11.86,11.86,0,0,0,.75-1.37,6.72,6.72,0,0,0,.29-1,9.17,9.17,0,0,1,1.27.48c.12.07.19.16.19.22s-.07.16-.15.24a2,2,0,0,0-.31.46,13.63,13.63,0,0,1-1.37,2.33c.42.64.87,1,1.15,1s.55-.44.74-1.5a3,3,0,0,0,.78.52c.29.14.4.2.4.36a1.3,1.3,0,0,1-.08.34c-.39,1.31-.9,1.89-1.79,1.89a3,3,0,0,1-2.2-1.44,9.78,9.78,0,0,1-1.18,1c-.19.13-.3.2-.38.2s-.17-.09-.34-.29a4.81,4.81,0,0,0-.52-.5c0,.08-.06.08-.17.08s-.4,0-1.32,0h-1.47c-.92,0-1.21,0-1.32,0s-.18,0-.18-.17,0-.35,0-1v-1c0-.66,0-.89,0-1s0-.17.18-.17.4,0,1.32,0h1.47c.92,0,1.21,0,1.32,0s.17,0,.17.17,0,.34,0,1v1c0,.47,0,.71,0,.86a8.57,8.57,0,0,0,1.72-1.39A14.73,14.73,0,0,1,222.4,3h-5.55V4a18.78,18.78,0,0,1-.28,3.13,8.53,8.53,0,0,1-1,2.73c-.12.22-.19.31-.28.31s-.16-.07-.33-.23a3.72,3.72,0,0,0-1-.67A6,6,0,0,0,215,6.8a14.58,14.58,0,0,0,.29-3.32c0-1.09,0-1.61,0-1.7s0-.16.19-.16.61,0,2.1,0h4.67c-.07-.56-.1-1.14-.19-1.59.55,0,1.12.06,1.57.11.16,0,.24.08.24.17a.71.71,0,0,1-.08.28,4.5,4.5,0,0,0,0,1h1.49c-.23-.29-.54-.64-.71-.81a.14.14,0,0,1-.08-.14.18.18,0,0,1,.12-.15ZM214.27,13.21c-.18-.11-.18-.17-.09-.3a8.68,8.68,0,0,0,1.57-2.6c.07-.17.1-.17.32-.08l.92.41c.2.09.21.12.17.28a11.67,11.67,0,0,1-1.59,2.8c-.1.13-.14.13-.31,0Zm6.18-9.51c.93,0,1.31,0,1.4,0s.16,0,.16.18v.91c0,.15,0,.17-.16.17s-.47,0-1.4,0h-1.59c-.92,0-1.3,0-1.39,0s-.17,0-.17-.17V3.85c0-.17,0-.18.17-.18s.47,0,1.39,0ZM219.34,12c0,.31.06.52.25.63a5.23,5.23,0,0,0,1.58.14,4.22,4.22,0,0,0,1.9-.18c.26-.14.39-.59.4-1.34a3.66,3.66,0,0,0,1.13.47c.4.13.4.13.36.55a1.89,1.89,0,0,1-.86,1.53,7,7,0,0,1-3.06.37,7,7,0,0,1-2.7-.31c-.36-.2-.57-.53-.57-1.36V11.12a6.06,6.06,0,0,0-.08-1.19,10.77,10.77,0,0,1,1.54.1c.19,0,.28.08.28.14a.43.43,0,0,1-.08.26,1.36,1.36,0,0,0-.09.56Zm1.16-5.28h-1.86V7.84h1.86ZM221,9.37c.15-.11.2-.11.33,0a8.54,8.54,0,0,1,1.46,1.54c.1.11.11.14-.05.25l-.81.62a.33.33,0,0,1-.2.11c-.05,0-.08,0-.12-.11a11.22,11.22,0,0,0-1.36-1.62c-.13-.12-.13-.14.06-.28Zm4.82.63a.48.48,0,0,1,.18-.08c.05,0,.08,0,.14.09A12.33,12.33,0,0,1,228,12.62c.07.15.07.18-.13.31l-1,.59c-.2.13-.25.14-.31,0a9.65,9.65,0,0,0-1.67-2.69c-.12-.13-.11-.17.08-.28Z"/><path class="cls-1" d="M236.79,11.88c.84-.09,1.73-.21,2.65-.37a6.52,6.52,0,0,0-.14.72l-.05.28A8.9,8.9,0,0,0,241,9a21.51,21.51,0,0,0,.51-4c-.92,0-1.26,0-1.34,0s-.19,0-.19-.17V3.76c0-.16,0-.17.19-.17s.44,0,1.41,0c0-.41,0-.81,0-1.25a14.53,14.53,0,0,0-.11-2.2c.56,0,1,0,1.56.11.16,0,.23.08.23.17a1.1,1.1,0,0,1-.09.38,6.94,6.94,0,0,0-.09,1.59c0,.42,0,.81,0,1.2H244c1.2,0,1.61,0,1.7,0s.19,0,.19.18c0,.53,0,1,0,1.49a47.68,47.68,0,0,1-.46,7.14,1.77,1.77,0,0,1-2,1.71c-.32,0-.59,0-.85,0s-.36,0-.41-.54a3.39,3.39,0,0,0-.31-1,8.15,8.15,0,0,0,1.29.13c.47,0,.74-.25.85-1A46.17,46.17,0,0,0,244.37,5h-1.31a28,28,0,0,1-.58,4.47A10,10,0,0,1,240.17,14c-.16.15-.25.23-.33.23s-.15-.08-.29-.22a3,3,0,0,0-1-.75c.17-.15.34-.31.5-.48a1.05,1.05,0,0,1-.3.06c-1.65.33-3.68.63-5.44.81a4,4,0,0,0-.58.11.56.56,0,0,1-.26.1c-.1,0-.17-.1-.22-.27-.09-.4-.19-.9-.27-1.37a12.71,12.71,0,0,0,1.64,0c.55,0,1.14-.06,1.76-.12v-.91h-.92c-1.35,0-1.81,0-1.9,0s-.17,0-.17-.16v-.94c0-.15,0-.17.17-.17s.55,0,1.9,0h.92V9.26h-.62c-1.33,0-1.78,0-1.87,0s-.19,0-.19-.17,0-.46,0-1.29V6.16c0-.84,0-1.2,0-1.28s0-.17.19-.17.54,0,1.87,0h.62V4.05h-1.15c-1.4,0-1.89,0-2,0s-.17,0-.17-.18V3c0-.15,0-.17.17-.17s.58,0,2,0h1.15v-.7c-.67.06-1.34.13-2,.16-.44,0-.45,0-.58-.35a3,3,0,0,0-.48-.84,29.91,29.91,0,0,0,5.52-.59,6.46,6.46,0,0,0,.86-.26,6.71,6.71,0,0,1,.89.85.39.39,0,0,1,.12.28c0,.1-.12.16-.32.16a4.26,4.26,0,0,0-.71.11c-.62.12-1.24.23-1.88.31v.87h.9c1.39,0,1.87,0,2,0s.15,0,.15.17v.92c0,.16,0,.18-.12.18s-.61,0-2,0h-.9v.69h.67c1.31,0,1.76,0,1.87,0s.17,0,.17.17,0,.44,0,1.28V7.83c0,.83,0,1.2,0,1.29s0,.17-.17.17-.56,0-1.87,0h-.67v.67h.57c1.34,0,1.81,0,1.91,0s.17,0,.17.17V11c0,.14,0,.16-.17.16s-.57,0-1.91,0h-.57Zm-1.41-5.35V5.72h-1.29v.81Zm0,1.74V7.44h-1.29v.83Zm1.41-2.55v.81h1.35V5.72Zm1.35,1.72h-1.35v.83h1.35Z"/><path class="cls-1" d="M252.69,1.84c.26.14.36.23.36.37s0,.16-.24.47a3.87,3.87,0,0,0-.37,1.11,25,25,0,0,0-.66,5,13.42,13.42,0,0,0,.1,1.82c.33-.72.61-1.23,1.06-2.32a3.76,3.76,0,0,0,.54,1,.59.59,0,0,1,.11.23.39.39,0,0,1-.08.25,15.88,15.88,0,0,0-.88,2.36,1.41,1.41,0,0,0,0,.48c0,.19,0,.31,0,.44s-.06.17-.2.2a8.06,8.06,0,0,1-1.28.25c-.11,0-.17-.06-.2-.17a14.51,14.51,0,0,1-.72-4.65,29.6,29.6,0,0,1,.53-5.11A12.88,12.88,0,0,0,251,1.26,6.88,6.88,0,0,1,252.69,1.84ZM256,9.19c.12,0,.15.06.15.23.09,1.08.84,1.47,2.54,1.47a21.44,21.44,0,0,0,3-.21c.16,0,.19,0,.22.21a10.74,10.74,0,0,1,.09,1.34c0,.18,0,.2-.26.23a21.91,21.91,0,0,1-2.54.17c-2.31,0-3.39-.37-4.06-1.29a3.45,3.45,0,0,1-.54-2Zm-.88-5.84c0-.18.07-.23.22-.26a25.18,25.18,0,0,1,3.38-.28c.94,0,1.66,0,2.31.09.33,0,.36.05.36.2,0,.47,0,.89,0,1.33,0,.14-.06.2-.2.19-.94-.07-1.75-.1-2.54-.1a19.48,19.48,0,0,0-3.54.36C255.12,4,255.12,3.62,255.15,3.35Z"/><path class="cls-1" d="M108.18,105.48c-.48,5.8-3.21,8.62-8.35,8.62-5,0-7.74-3.35-7.74-9.43V87.29c0-6.09,2.73-9.44,7.68-9.44s7.65,2.83,8.13,8.63l0,.34h2.53l0-.4c-.51-7.19-4.2-11-10.66-11S89.56,79.86,89.56,87.29v17.38c0,7.42,3.84,11.85,10.27,11.85,6.63,0,10.37-3.8,10.83-11l0-.4h-2.47Z"/><path class="cls-1" d="M125.49,75.43c-6.85,0-10.95,4.56-10.95,12.19v16.77c0,7.6,4.1,12.13,10.95,12.13s10.94-4.53,10.94-12.13V87.62C136.43,80,132.34,75.43,125.49,75.43Zm8.4,29c0,6.23-3,9.66-8.4,9.66s-8.35-3.43-8.35-9.66V87.62c0-6.26,3-9.71,8.35-9.71s8.4,3.45,8.4,9.71Z"/><path class="cls-1" d="M192.48,88.06c-.06-7.6-4.15-12-11.22-12H172.5v39.76H175V100.37h6.22a10.9,10.9,0,0,0,8.05-3C191.41,95.29,192.51,92.06,192.48,88.06Zm-11.22,9.88H175V78.58h6.22a8.51,8.51,0,0,1,6.3,2.24c1.61,1.62,2.41,4.06,2.38,7.24C189.89,94.53,186.88,97.94,181.26,97.94Z"/><path class="cls-1" d="M225.19,94.52c-4.1-2.64-8-5.14-8-9.74,0-4,2.95-6.87,7.17-6.87s6.69,2.69,7.12,7.57l0,.34h2.53l0-.4c-.42-6.16-4.14-10-9.72-10s-9.65,3.93-9.65,9.35c0,5.93,4.59,8.91,9,11.8,4.18,2.72,8.13,5.29,8.13,10.1,0,4.47-2.9,7.37-7.39,7.37s-7.13-2.73-7.57-7.69l0-.34h-2.53l0,.4c.37,6.23,4.24,10.1,10.11,10.1a9.59,9.59,0,0,0,10-9.84C234.44,100.5,229.73,97.46,225.19,94.52Z"/><path class="cls-1" d="M248.43,94.52c-4.1-2.64-8-5.14-8-9.74,0-4,2.95-6.87,7.17-6.87s6.7,2.69,7.12,7.57l0,.34h2.54l0-.4c-.41-6.16-4.13-10-9.71-10s-9.66,3.93-9.66,9.35c0,5.93,4.59,8.91,9,11.8,4.18,2.72,8.13,5.29,8.13,10.1,0,4.47-2.91,7.37-7.4,7.37s-7.13-2.73-7.57-7.69l0-.34h-2.53l0,.4c.36,6.23,4.23,10.1,10.1,10.1a9.59,9.59,0,0,0,10-9.84C257.68,100.5,253,97.46,248.43,94.52Z"/><path class="cls-1" d="M141,76.1v39.76h2.54s0-23.35,0-29.31c2,3.82,10.68,19.07,10.68,19.07L165,86.38c0,5.83-.1,29.48-.1,29.48h2.54V76.1S155.85,97,154.23,100.27C152.48,96.77,141,76.1,141,76.1Z"/><path class="cls-1" d="M99.33,72.3c6.29,0,9.86-3.62,10.29-10.48l0-.49H107.1l0,.43c-.45,5.41-3,8-7.74,8S92.16,66.68,92.16,61V44.6c0-5.68,2.52-8.8,7.11-8.8s7.08,2.56,7.54,8.05l0,.42h2.61l0-.5c-.49-6.85-4-10.47-10.14-10.47a9.13,9.13,0,0,0-7.06,2.89c-1.76,2-2.65,4.8-2.65,8.41V61C89.56,68.08,93.21,72.3,99.33,72.3Z"/><path class="cls-1" d="M116.18,56.21H121l8.78,15.28.11.18h3l-9-15.6C129,55.28,132,51.13,132,44.86c0-7.15-3.71-10.93-10.72-10.93h-7.66V71.67h2.6Zm0-19.78h5.06c5.46,0,8.11,2.78,8.11,8.48s-2.59,8.75-7.11,8.75h-6.06Z"/><polygon class="cls-1" points="152.99 69.17 138.21 69.17 138.21 53.73 151.73 53.73 151.73 51.24 138.21 51.24 138.21 36.43 152.83 36.43 152.83 33.93 135.61 33.93 135.61 71.67 152.99 71.67 152.99 69.17"/><polygon class="cls-1" points="181.82 71.67 184.43 71.67 184.43 36.43 192.84 36.43 192.84 33.93 173.57 33.93 173.57 36.43 181.82 36.43 181.82 71.67"/><path class="cls-1" d="M203.33,33.3c-6.61,0-10.4,4.23-10.4,11.61V60.74c0,7.24,3.89,11.56,10.4,11.56s10.4-4.32,10.4-11.56V44.91C213.73,37.53,209.94,33.3,203.33,33.3Zm7.79,27.44c0,5.81-2.76,9-7.79,9s-7.75-3.2-7.75-9V44.91c0-5.84,2.75-9.06,7.75-9.06s7.79,3.22,7.79,9.06Z"/><path class="cls-1" d="M235.87,44.86c0-7.15-3.7-10.93-10.72-10.93h-7.66V71.67h2.6V56.21h4.85l8.78,15.28.11.18h3l-9-15.6C232.86,55.28,235.87,51.13,235.87,44.86Zm-15.78,8.8V36.43h5.06c5.46,0,8.12,2.78,8.12,8.48s-2.6,8.75-7.12,8.75Z"/><path class="cls-1" d="M240.93,49.33c0,5,3.95,6.75,7.77,8.46,3.48,1.57,6.48,2.92,6.48,6.43,0,2.89-2.36,4.9-5.74,4.9-4,0-6.13-2-6.33-6l0-.43H240.6l0,.47c.16,5.28,3.46,8.44,8.82,8.44,4.78,0,8.24-3.09,8.24-7.35,0-5.19-4-7-7.92-8.76-3.37-1.52-6.28-2.83-6.28-6.12,0-2.87,2.18-4.8,5.43-4.8,3.58,0,5.6,1.87,5.69,5.28l0,.45h2.55v-.48c-.17-4.75-3.33-7.7-8.25-7.7C244.21,42.14,240.93,45.1,240.93,49.33Z"/><path class="cls-1" d="M189,115.86h2.9s7.38-23.23,9.33-30c1.95,6.75,9.1,30,9.1,30h2.89l-12-39.74Z"/><path class="cls-1" d="M166.68,43c1.86,6.44,8.69,28.64,8.69,28.64h2.76L166.68,33.72,155,71.67h2.77S164.81,49.49,166.68,43Z"/><polygon class="cls-1" points="243.35 38.82 243.35 34.3 238.83 34.3 238.83 38.64 238.83 38.82 238.83 42.95 241.14 38.82 243.35 38.82"/><path class="cls-1" d="M40.07,34.85A40.07,40.07,0,1,0,80.14,74.91,40.11,40.11,0,0,0,40.07,34.85ZM3.41,74.91A36.63,36.63,0,0,1,65.23,48.29L5.33,86.59A36.39,36.39,0,0,1,3.41,74.91ZM59.89,55.75V57l0,.06-.5.79-.55.85V56.44l.55-.34Zm-2.07,1.32v3.12l-.54.85-.07.11-.47.74V57.77l.54-.35Zm-2.07,1.32v5l-.54.85-.54.85v-6h0l.54-.35Zm-2.06,1.33v6.94l-.45.7-.1.15-.54.85v-8l.54-.35ZM51.62,61v8.85l-.54.85-.48.75-.07.1V61.73l.55-.35.36-.23Zm-2.07,1.32V73.12l-.27.44L49,74l-.54.85V63.05l.54-.34Zm-2.06,1.32V76.36l-.55.85-.31.48-.23.37V64.37l.54-.34ZM45.42,65V79.59l-.11.17-.43.68-.55.85V65.7l.55-.35.09-.06ZM42.54,77.69a5,5,0,0,0-.27-1.09V67l.54-.35.54-.35V82.64l-.54-.54-.28-.27-.26-.27V80a2.09,2.09,0,0,1,.08-.23,4.71,4.71,0,0,0,.23-1.47C42.58,78.09,42.56,77.89,42.54,77.69Zm-1.26-10V75a4.27,4.27,0,0,0-.54-.5,4,4,0,0,0-.54-.37V68.34l.54-.35Zm-4.67,8.6a1.55,1.55,0,0,1,.22-.12,1.73,1.73,0,0,1,.32-.11,2.59,2.59,0,0,1,.63-.09,2,2,0,0,1,.35,0,2.38,2.38,0,0,1,.54.14,2.38,2.38,0,0,1,1.39,1.59,2,2,0,0,1,.09.6,2.31,2.31,0,0,1-.2.95,2.14,2.14,0,0,1-.32.52,2.65,2.65,0,0,1-.41.41.05.05,0,0,1,0,0,1.85,1.85,0,0,1-.33.21,2.38,2.38,0,0,1-.93.25h-.14a2.37,2.37,0,0,1-2.37-2.37.78.78,0,0,1,0-.14,2.21,2.21,0,0,1,.25-.92,2.33,2.33,0,0,1,.2-.34l.18-.22A2.23,2.23,0,0,1,36.61,76.25Zm-.55-2.43V71l.55-.34.54-.35v3.25l-.09,0a3.58,3.58,0,0,0-.45.09A5,5,0,0,0,36.06,73.82Zm2.07-.3V69.66l.37-.24.17-.11.55-.34v4.75a4.92,4.92,0,0,0-.55-.14l-.17,0A2.33,2.33,0,0,0,38.13,73.52Zm-3.05-1.91v2.72l0,0-.52-.52-.28-.27L34,73.29v-1l.54-.34ZM6.59,89.83,31.3,74l2.17,2.17A4.73,4.73,0,0,0,33,78.29a4.79,4.79,0,0,0,6.9,4.31l2.2,2.21L26.61,109A36.85,36.85,0,0,1,6.59,89.83Zm33.48,21.74a36.91,36.91,0,0,1-10.14-1.43L67.78,51a36.63,36.63,0,0,1-27.71,60.62Z"/></g></g></svg>