<svg xmlns="http://www.w3.org/2000/svg" viewBox="0 0 205.82 26.15"><defs><style>.cls-1{fill:#fff;}</style></defs><g id="レイヤー_2" data-name="レイヤー 2"><g id="レイヤー_2-2" data-name="レイヤー 2"><path class="cls-1" d="M168.54,15.2h0l-.76,3.74h1.55Zm2.87,6.53c.11.51-.75.82-1,.82s-.33-.06-.39-.35l-.38-1.86H168c-.36,0-.56.13-.6.36l-.21,1c-.13.63-.88.84-1.34.84-.31,0-.36-.13-.29-.39l2.32-9.93h1.3Z"/><path class="cls-1" d="M161.93,12.23h-1.56V22.54h3.76c.61,0,.87-.85.87-1.13s-.13-.35-.4-.35h-2.11c-.36,0-.56-.14-.56-.37Z"/><path class="cls-1" d="M183.46,12.23c.25,0,.37.06.37.33s-.24,1.06-.82,1.06h-1.93c-.36,0-.57.14-.57.37v2.48h2.68v1.39h-2.11c-.36,0-.57.14-.57.37v2.83h3c.27,0,.4.06.4.35s-.26,1.13-.87,1.13h-4V12.23Z"/><path class="cls-1" d="M187.75,21.68c0,.62-.89.87-1.18.87s-.37-.13-.37-.39V13.62h-1.8V12.23h5.13c.27,0,.4.06.4.33s-.26,1.06-.88,1.06h-.73c-.36,0-.57.14-.57.37Z"/><path class="cls-1" d="M173.85,16.35h0v5.33c0,.62-.9.87-1.19.87s-.37-.13-.37-.39V12.23h1.5l2.34,6.22h0V12.23h1.55v9.45c0,.62-.89.87-1.18.87s-.28,0-.35-.17Z"/><path class="cls-1" d="M154.47,12.23h2.33a2.63,2.63,0,0,1,2,.72,3.1,3.1,0,0,1,.7,2.43,3.62,3.62,0,0,1-.44,2.07,2.44,2.44,0,0,1-2.26,1.07h-.22c-.36,0-.57.14-.57.37v2.79c0,.62-.89.87-1.18.87s-.37-.13-.37-.39Zm1.55,4.9h.75c1.26,0,1.28-.71,1.28-1.74s0-1.77-1.22-1.77h-.24c-.36,0-.57.14-.57.37Z"/><path class="cls-1" d="M122,6.34a26,26,0,0,1-6.46-.69c-2.23-.51-3.92-1.47-6.42-1.45s-4.85.92-4.58,1.52A7,7,0,0,0,107,8.16a8.18,8.18,0,0,0,3.42,1.37c.71,0,1.22-.27.47-.52a24.94,24.94,0,0,1-3.61-1.45c-.69-.41-1.22-.92-.69-1.31a6.09,6.09,0,0,1,2.83-.83,6.7,6.7,0,0,1,3.89.64,22.77,22.77,0,0,0,8.06,1.63c3.4,0,7.55-.22,9.26-.82s2.08-1.19,2-1.58-.3-.45-1.56-.88a33.84,33.84,0,0,0-5.92-1.34,21.79,21.79,0,0,0-5.09-.3c-.79.17-.86.47-1.24,1.28a33.11,33.11,0,0,0-2.18,6.07,20.36,20.36,0,0,0-.2,7.64c.52,2.89,1.48,4.94,2.57,6s2.61,1.8,3.44,1.48,1.2-1.39,1-1.56-.34,0-.79.19a2.13,2.13,0,0,1-2.74-.47c-1.13-1.05-2.31-3.87-2.52-7.68A21.1,21.1,0,0,1,119,7.21,10.69,10.69,0,0,1,120.11,5c.45-.52,1-.74,2.34-.71s3.34.23,4.78.35c1.26.12,3.5.27,3.57.65s-.48.49-1.74.64S124.4,6.32,122,6.34Z"/><path class="cls-1" d="M122.65,17.18c.16,1.12.54,2.4,1.46,2.61s1.46,0,1.86-.6c.57-.9,1-4.36,1.44-5.88.11-.37.12-.37.27-.12.79,1.27,1.5,2.67,2,3.63a19.9,19.9,0,0,1,1.54,3.59,11.1,11.1,0,0,1-.13,3.31c-.17,1-.27,1.38.15,2s.74.53,1,.13.48-.88.71-2.66.53-5.08.91-7.67a57.19,57.19,0,0,1,1.42-7c.45-1.47,1-2.7,1.1-3.26s.08-.91.11-1.2-.14-.24-.4.24A25.3,25.3,0,0,0,133.73,10c-.44,1.68-1.44,6.25-1.75,8.57,0,.25-.15.48-.35.09-.87-1.7-1.54-3.39-2.12-4.69a13,13,0,0,0-1.68-3c-.42-.37-.89-.41-1-.11-.45.93-1,4.35-1.53,6.29-.32,1.06-.62,1.54-.94,1.5s-.46-.51-.53-1.23c-.16-1.65.35-4.46.23-5.37a1.41,1.41,0,0,0-1.21-1.32,2.88,2.88,0,0,0-1.44-.19c-.32.11-.31.23.19.53s1.16.72,1.22,1.32C122.93,13.84,122.52,16.32,122.65,17.18Z"/><path class="cls-1" d="M136.45,16.81c-.13,2.61.11,3.47.71,4.71.41.84.73,1,1,.92s.29-.29.14-.88a12.45,12.45,0,0,1-.37-4.06,9,9,0,0,1,.74-2.52,2,2,0,0,0-.07-1.61c-.24-.32-1-.59-1.38-.86s-.77-.08-.51.24A1.35,1.35,0,0,1,137,14,13.69,13.69,0,0,0,136.45,16.81Z"/><path class="cls-1" d="M141.5,15.34c-.14,1.74-.71,6-.68,6.36a1,1,0,0,0,.56.73c.24.14.39-.06.51-.42A60.66,60.66,0,0,0,143,14.83c0-.2.1-.26.35,0a21.08,21.08,0,0,1,3.11,4.44,5.59,5.59,0,0,1,1.15,3,28.53,28.53,0,0,1-.25,3.4c-.07.48.22.34.46.08a3.29,3.29,0,0,1,1.08-.75c.41-.18.51-.87.61-2.35.16-2.34.62-6.27,1-8.69a47,47,0,0,1,1.51-6.53,12.62,12.62,0,0,0,.77-2.29,6.44,6.44,0,0,0,.06-1c0-.32-.05-.45-.32,0A33.37,33.37,0,0,0,150,10.92c-.45,1.57-1.29,5.16-1.51,6.19s-.35,1.76-.4,2.15-.13.42-.24.21a32.48,32.48,0,0,0-3-4.75A23,23,0,0,0,143.16,13c-.54-.54-.8-.79-1.28-.85s-.8.11-.7.56a13.73,13.73,0,0,1,.35,1.35A8.09,8.09,0,0,1,141.5,15.34Z"/><path class="cls-1" d="M193.68,8.36a5.2,5.2,0,0,0,1.87,3.47c.91.51,1.59-.09,1.57-.72s-.23-.85-1-1.88A4,4,0,0,1,199,2.42c2.38-.1,4.1,1.93,4.59,3.69s.12,3.4-1.61,4.12a3.28,3.28,0,0,1-3.54-.74,3.85,3.85,0,0,1-1-2.52c-.06-.7-1-.6-.77.22a4.48,4.48,0,0,0,2.56,3.31,3.67,3.67,0,0,0,4-.57,3.94,3.94,0,0,0,.84-4.23,5.25,5.25,0,0,0-4.9-3.65,5.69,5.69,0,0,0-4.53,2.15A5.46,5.46,0,0,0,193.68,8.36Z"/><path class="cls-1" d="M205,10.66a7.42,7.42,0,0,0,.79-3.32,7.34,7.34,0,1,0-7.42,7.34,5.26,5.26,0,0,0,4.91-2.78,4.8,4.8,0,0,0-.84-5c-.78-.91-2.06-1.8-2.81-1.73s-1.08.57-.82,1.26,1.38.9,2.47,2.06a3.43,3.43,0,0,1,.68,3.67,3.59,3.59,0,0,1-3.42,2,6.53,6.53,0,0,1-6.65-6.84,6.73,6.73,0,0,1,13.45,0,6.29,6.29,0,0,1-.78,3.08.25.25,0,1,0,.44.23Z"/><polygon class="cls-1" points="36.2 2.92 35.18 6.65 37.55 6.65 37.55 23.22 41.61 23.22 41.61 2.92 36.2 2.92"/><polygon class="cls-1" points="23.34 2.92 22.33 6.65 24.7 6.65 24.7 23.22 28.75 23.22 28.75 2.92 23.34 2.92"/><path class="cls-1" d="M66.64,23.22,62.91,16A6.71,6.71,0,0,0,66,10c0-4.32-2.91-7.1-7.45-7.1H50.41V23.22h4.05V7.66l7.79,15.56Z"/><path class="cls-1" d="M16.24,23.22,12.5,16a6.68,6.68,0,0,0,3.06-6c0-4.32-2.91-7.1-7.44-7.1H0V23.22H4.06V7.66l7.78,15.56Z"/></g></g></svg>