<svg xmlns="http://www.w3.org/2000/svg" viewBox="0 0 722.32 233.29"><defs><style>.cls-1{fill:#0f00b5;}</style></defs><g id="レイヤー_2" data-name="レイヤー 2"><g id="レイヤー_2-2" data-name="レイヤー 2"><path class="cls-1" d="M303.24,202.32c-1.35,16.27-9,24.18-23.41,24.18-14,0-21.67-9.39-21.67-26.44V151.33c0-17.05,7.64-26.44,21.52-26.44s21.42,7.91,22.77,24.18l.08,1h7.12l-.08-1.12c-1.45-20.16-11.79-30.81-29.89-30.81-17.94,0-28.64,12.42-28.64,33.23v48.73c0,20.81,10.76,33.23,28.79,33.23,18.58,0,29.08-10.66,30.36-30.82l.07-1.12h-6.94Z"/><path class="cls-1" d="M351.76,118.1c-19.21,0-30.67,12.77-30.67,34.16v47c0,21.29,11.46,34,30.67,34s30.68-12.72,30.68-34v-47C382.44,130.87,371,118.1,351.76,118.1Zm23.56,81.18c0,17.45-8.37,27.06-23.56,27.06s-23.4-9.61-23.4-27.06v-47c0-17.55,8.31-27.22,23.4-27.22s23.56,9.67,23.56,27.22Z"/><path class="cls-1" d="M539.56,153.5C539.39,132.19,527.92,120,508.1,120H483.53V231.41h7.12V188H508.1c9.51,0,17.1-2.79,22.56-8.29C536.56,173.76,539.64,164.7,539.56,153.5ZM508.1,181.2H490.65V126.92H508.1c7.58,0,13.53,2.11,17.66,6.29,4.51,4.55,6.76,11.38,6.68,20.29C532.28,171.62,523.87,181.2,508.1,181.2Z"/><path class="cls-1" d="M631.23,171.62c-11.49-7.42-22.34-14.42-22.34-27.32C608.89,133,617.16,125,629,125c11.67,0,18.76,7.54,20,21.22l.09,1h7.1l-.07-1.12c-1.16-17.27-11.59-28-27.23-28s-27.07,11-27.07,26.2c0,16.61,12.88,25,25.34,33.09,11.71,7.61,22.78,14.81,22.78,28.29,0,12.55-8.14,20.66-20.74,20.66-12.43,0-20-7.65-21.21-21.53l-.08-1h-7.09l.06,1.11c1,17.47,11.88,28.33,28.32,28.33,16.23,0,28-11.61,28-27.61C657.17,188.36,644,179.85,631.23,171.62Z"/><path class="cls-1" d="M696.39,171.62C684.9,164.2,674,157.2,674,144.3,674,133,682.31,125,694.15,125c11.68,0,18.77,7.54,20,21.22l.09,1h7.1l-.08-1.12c-1.15-17.27-11.59-28-27.22-28s-27.07,11-27.07,26.2c0,16.61,12.88,25,25.33,33.09C704,185,715.05,192.2,715.05,205.68c0,12.55-8.14,20.66-20.74,20.66-12.44,0-20-7.65-21.21-21.53l-.09-1h-7.09L666,205c1,17.47,11.87,28.33,28.32,28.33,16.23,0,28-11.61,28-27.61C722.32,188.36,709.14,179.85,696.39,171.62Z"/><path class="cls-1" d="M395.34,120V231.41h7.11s0-65.45-.1-82.16c5.58,10.71,29.94,53.47,29.94,53.47l30.08-53.94c-.13,16.36-.26,82.63-.26,82.63h7.12V120s-32.35,58.49-36.89,67.76C427.42,177.9,395.34,120,395.34,120Z"/><path class="cls-1" d="M278.42,109.32c17.66,0,27.64-10.15,28.86-29.38l.08-1.36h-7.13l-.1,1.19c-1.25,15.17-8.35,22.55-21.71,22.55-12.95,0-20.08-8.76-20.08-24.66v-46c0-15.9,7.08-24.66,19.94-24.66,13.13,0,19.85,7.17,21.12,22.56l.1,1.18h7.29l-.1-1.38C305.32,10.15,295.49,0,278.28,0c-8.23,0-15.08,2.8-19.8,8.1C253.54,13.64,251,21.56,251,31.66v46C251,97.48,261.27,109.32,278.42,109.32Z"/><path class="cls-1" d="M325.67,64.21h13.59l24.63,42.84.3.5h8.27l-25.2-43.74C361.47,61.61,369.9,50,369.9,32.4c0-20-10.39-30.63-30-30.63H318.37V107.55h7.3Zm0-55.44h14.19c15.3,0,22.74,7.78,22.74,23.78,0,15.57-7.27,24.5-19.94,24.5h-17Z"/><polygon class="cls-1" points="428.85 100.55 387.42 100.55 387.42 57.28 425.31 57.28 425.31 50.27 387.42 50.27 387.42 8.77 428.41 8.77 428.41 1.77 380.12 1.77 380.12 107.55 428.85 107.55 428.85 100.55"/><polygon class="cls-1" points="509.68 107.55 516.98 107.55 516.98 8.77 540.57 8.77 540.57 1.77 486.53 1.77 486.53 8.77 509.68 8.77 509.68 107.55"/><path class="cls-1" d="M570,0c-18.53,0-29.15,11.86-29.15,32.55V76.92c0,20.29,10.89,32.4,29.15,32.4s29.15-12.11,29.15-32.4V32.55C599.11,11.86,588.49,0,570,0Zm21.86,76.92c0,16.28-7.77,25.25-21.86,25.25s-21.71-9-21.71-25.25V32.55c0-16.38,7.71-25.4,21.71-25.4s21.86,9,21.86,25.4Z"/><path class="cls-1" d="M661.18,32.4c0-20-10.38-30.63-30-30.63H609.66V107.55H617V64.21h13.6L655.16,107l.3.51h8.29L638.54,63.81C652.76,61.61,661.18,50,661.18,32.4ZM617,57.05V8.77h14.19c15.31,0,22.74,7.78,22.74,23.78,0,15.57-7.26,24.5-19.93,24.5Z"/><path class="cls-1" d="M675.37,44.94c0,14,11.06,18.91,21.76,23.72,9.76,4.38,18.19,8.16,18.19,18,0,8.1-6.62,13.75-16.11,13.75-11.22,0-17.18-5.64-17.72-16.76l-.07-1.23h-7l0,1.33c.46,14.82,9.7,23.66,24.73,23.66,13.39,0,23.11-8.66,23.11-20.6,0-14.55-11.28-19.64-22.2-24.56-9.44-4.25-17.6-7.93-17.6-17.16,0-8.05,6.12-13.46,15.22-13.46,10,0,15.68,5.27,16,14.82l0,1.25h7.16l0-1.33c-.47-13.32-9.33-21.59-23.11-21.59C684.57,24.78,675.37,33.07,675.37,44.94Z"/><path class="cls-1" d="M529.66,231.41h8.12s20.69-65.1,26.16-84c5.47,18.91,25.51,84,25.51,84h8.1L564,120Z"/><path class="cls-1" d="M467.23,27.27c5.22,18.06,24.36,80.28,24.36,80.28h7.74L467.23,1.18,434.49,107.55h7.75S462,45.37,467.23,27.27Z"/><polygon class="cls-1" points="682.15 15.47 682.15 2.81 669.48 2.81 669.48 14.97 669.48 15.47 669.48 27.04 675.96 15.47 682.15 15.47"/><path class="cls-1" d="M112.32,4.33A112.32,112.32,0,1,0,224.63,116.64,112.44,112.44,0,0,0,112.32,4.33ZM9.56,116.64A102.67,102.67,0,0,1,182.84,42L14.93,149.37A102.18,102.18,0,0,1,9.56,116.64ZM167.88,62.93v3.39l-.11.17-1.42,2.21-1.52,2.38V64.87l1.52-1Zm-5.8,3.7v8.75l-1.52,2.38-.2.32L159,80.14V68.58l1.52-1Zm-5.79,3.71v14.1l-1.53,2.38-1.52,2.38V72.28h0l1.51-1Zm-5.8,3.7V93.5l-1.25,2-.27.42-1.52,2.38V76L149,75Zm-5.79,3.71v24.82L143.18,105l-1.35,2.1-.18.28V79.69l1.53-1,1-.64Zm-5.8,3.7v30.18l-.77,1.21-.75,1.17-1.52,2.38v-33l1.52-1Zm-5.79,3.71v35.53l-1.52,2.38-.87,1.36-.65,1V87.1l1.52-1Zm-5.8,3.7v40.89l-.3.48-1.22,1.91-1.52,2.38V90.81l1.52-1,.27-.17Zm-8.07,35.57a14,14,0,0,0-.76-3.05V94.51l1.52-1,1.52-1v45.75L120,136.79l-.77-.77-.75-.75v-4.41c.08-.21.16-.42.23-.63a13.34,13.34,0,0,0,.64-4.11A13.57,13.57,0,0,0,119.24,124.43Zm-3.51-28.16V117a14.51,14.51,0,0,0-1.53-1.4,13.08,13.08,0,0,0-1.52-1V98.22l1.52-1Zm-13.12,24.12c.21-.12.42-.25.64-.35a6.18,6.18,0,0,1,.89-.29,6.42,6.42,0,0,1,1.77-.27,6.51,6.51,0,0,1,1,.1,6.14,6.14,0,0,1,3,1.29,6.51,6.51,0,0,1,1.16,9.36,6.59,6.59,0,0,1-1.16,1.14l-.09.08a6.92,6.92,0,0,1-.94.57,6.66,6.66,0,0,1-2.59.71c-.14,0-.27,0-.4,0a6.65,6.65,0,0,1-6.65-6.65c0-.13,0-.26,0-.4a6.66,6.66,0,0,1,.71-2.59,6.92,6.92,0,0,1,.57-.94,7.64,7.64,0,0,1,.51-.62A6.67,6.67,0,0,1,102.61,120.39Zm-1.52-6.81v-8l1.52-1,1.53-1v9.13l-.24,0c-.44.07-.87.15-1.29.26A13.4,13.4,0,0,0,101.09,113.58Zm5.8-.85V101.92l1-.67.48-.3,1.52-1v13.31a14.66,14.66,0,0,0-1.52-.37l-.49-.08C107.58,112.79,107.23,112.75,106.89,112.73Zm-8.55-5.35V115l-.07.06-1.45-1.45-.77-.78-.75-.75v-2.76l1.52-1ZM18.48,158.45l69.26-44.29,6.09,6.09a13.3,13.3,0,0,0-1.37,5.87,13.46,13.46,0,0,0,13.45,13.45,13.3,13.3,0,0,0,5.87-1.37l6.18,6.18L74.6,212.2A103.31,103.31,0,0,1,18.48,158.45Zm93.84,61a102.48,102.48,0,0,1-28.41-4L190,49.48A102.66,102.66,0,0,1,112.32,219.4Z"/></g></g></svg>