<svg xmlns="http://www.w3.org/2000/svg" viewBox="0 0 276.43 79.86"><defs><style>.cls-1{fill:#fff;}.cls-2{opacity:0.08;}.cls-3{fill:none;stroke:#fff;stroke-miterlimit:10;stroke-width:0.78px;}</style></defs><g id="レイヤー_2" data-name="レイヤー 2"><g id="レイヤー_2-2" data-name="レイヤー 2"><path class="cls-1" d="M113,35l2.68,13.25h.06L118.48,35h5.6V53.73h-3.47v-15h0l-3.34,15h-2.94l-3.34-15h0v15h-3.47V35Z"/><path class="cls-1" d="M129.22,40.42a8.63,8.63,0,0,1,.87-3.09,4.86,4.86,0,0,1,1.93-2,8.34,8.34,0,0,1,6.78,0,4.79,4.79,0,0,1,1.93,2,8.63,8.63,0,0,1,.87,3.09,38.81,38.81,0,0,1,0,7.87,8.64,8.64,0,0,1-.87,3.08,4.59,4.59,0,0,1-1.93,2,8.79,8.79,0,0,1-6.78,0,4.64,4.64,0,0,1-1.93-2,8.64,8.64,0,0,1-.87-3.08,38.81,38.81,0,0,1,0-7.87Zm3.68,7.15a9,9,0,0,0,.37,2.15,2.33,2.33,0,0,0,.79,1.21,2.16,2.16,0,0,0,1.35.38,2.21,2.21,0,0,0,1.36-.38,2.32,2.32,0,0,0,.78-1.21,8.56,8.56,0,0,0,.37-2.15c.06-.89.09-2,.09-3.22s0-2.33-.09-3.21a8.73,8.73,0,0,0-.37-2.15,2.43,2.43,0,0,0-.78-1.23,2.28,2.28,0,0,0-1.36-.38,2.23,2.23,0,0,0-1.35.38,2.44,2.44,0,0,0-.79,1.23,9.23,9.23,0,0,0-.37,2.15q-.09,1.32-.09,3.21C132.81,45.61,132.84,46.68,132.9,47.57Z"/><path class="cls-1" d="M153.65,35a5.24,5.24,0,0,1,3.68,1.2,4.67,4.67,0,0,1,1.32,3.64,5.75,5.75,0,0,1-.76,3.09,3.54,3.54,0,0,1-2.37,1.54v0a3.45,3.45,0,0,1,2.08.92,3.93,3.93,0,0,1,.81,2.29c0,.35.06.73.08,1.14s0,.87,0,1.38c0,1,.09,1.76.16,2.29a1.51,1.51,0,0,0,.68,1.08v.15h-4.1a2,2,0,0,1-.36-.9,9.23,9.23,0,0,1-.11-1.07l-.1-3.6a3,3,0,0,0-.56-1.74,2,2,0,0,0-1.68-.63h-2v7.94h-3.79V35ZM152,43.17a3.1,3.1,0,0,0,2.11-.65,2.76,2.76,0,0,0,.73-2.17,2.31,2.31,0,0,0-2.63-2.6h-1.78v5.42Z"/><path class="cls-1" d="M174.39,38.07h-6.7v4.41H174v3.1h-6.31v5.05h7v3.1H163.91V35h10.48Z"/><g class="cls-2"><path class="cls-1" d="M23.13,1.51,34.15,56h.21L45.5,1.51h23V78.67H54.25V17.07H54L40.31,78.67H28.21L14.48,17.07h-.22v61.6H0V1.51Z"/><path class="cls-1" d="M89.64,23.94a35.72,35.72,0,0,1,3.57-12.7A19.9,19.9,0,0,1,101.15,3q5.19-3,13.94-3T129,3A19.9,19.9,0,0,1,137,11.24a35.72,35.72,0,0,1,3.57,12.7,149,149,0,0,1,.81,16.15,148.7,148.7,0,0,1-.81,16.21A35.68,35.68,0,0,1,137,69a18.87,18.87,0,0,1-7.94,8.1q-5.19,2.81-13.94,2.81t-13.94-2.81A18.87,18.87,0,0,1,93.21,69,35.68,35.68,0,0,1,89.64,56.3a148.7,148.7,0,0,1-.81-16.21A149,149,0,0,1,89.64,23.94Zm15.13,29.39a37,37,0,0,0,1.51,8.86,9.87,9.87,0,0,0,3.24,5,10.65,10.65,0,0,0,11.13,0,9.82,9.82,0,0,0,3.25-5,37,37,0,0,0,1.51-8.86q.38-5.46.38-13.24t-.38-13.18a37.61,37.61,0,0,0-1.51-8.86,9.88,9.88,0,0,0-3.25-5,10.71,10.71,0,0,0-11.13,0,9.93,9.93,0,0,0-3.24,5,37.61,37.61,0,0,0-1.51,8.86q-.37,5.4-.38,13.18T104.77,53.33Z"/><path class="cls-1" d="M190.09,1.51q9.72,0,15.13,4.92t5.4,15c0,5.18-1.05,9.42-3.13,12.69a14.57,14.57,0,0,1-9.73,6.33v.21q5.84.87,8.54,3.79t3.35,9.4c.14,1.44.25,3,.32,4.7s.14,3.58.22,5.67c.14,4.11.36,7.24.64,9.4A6.07,6.07,0,0,0,213.64,78v.65H196.79a8.3,8.3,0,0,1-1.52-3.73,42.84,42.84,0,0,1-.43-4.37l-.43-14.81a12.22,12.22,0,0,0-2.27-7.13Q190.09,46,185.22,46H176.9V78.67H161.34V1.51Zm-6.7,33.72q5.61,0,8.64-2.65t3-8.91q0-10.71-10.81-10.7H176.9V35.23Z"/><path class="cls-1" d="M275.35,14.26H247.79V32.42h25.94V45.17H247.79V65.92h28.64V78.67h-44.2V1.51h43.12Z"/></g><line class="cls-3" x1="199.67" y1="29.39" x2="189.81" y2="39.14"/><polygon class="cls-1" points="199.3 29.94 198.56 37.11 199.35 37.91 200.29 28.96 191.34 29.89 192.13 30.69 199.3 29.94"/></g></g></svg>