<svg xmlns="http://www.w3.org/2000/svg" viewBox="0 0 153.05 289.47"><defs><style>.cls-1,.cls-2{fill:blue;}.cls-2{stroke:blue;stroke-linecap:round;stroke-linejoin:round;stroke-width:3.73px;}.cls-3{fill:#fff;}</style></defs><g id="レイヤー_2" data-name="レイヤー 2"><g id="レイヤー_2-2" data-name="レイヤー 2"><path class="cls-1" d="M34.43,14.94H32.72L35.38,2.4l-6.2,12.54H27.49l-1-12.53L23.85,14.94H22.24L25.42,0h2.46l.95,12.69L35.18,0h2.44Z"/><path class="cls-1" d="M40.5,6.72q1.7-2.94,4.42-2.94a2.89,2.89,0,0,1,2.93,1.87,5.17,5.17,0,0,1,.39,2.05A8.45,8.45,0,0,1,48,9.5a10.07,10.07,0,0,1-1,2.77c-1.14,2-2.64,3-4.51,3s-2.87-1-3.16-3A8.58,8.58,0,0,1,40.5,6.72ZM41,9.49a8.27,8.27,0,0,0-.15,1.81c0,1.58.67,2.38,2,2.38s2.27-.78,3-2.34a8.39,8.39,0,0,0,.78-3.68c0-1.53-.7-2.3-2-2.3a2.93,2.93,0,0,0-2.44,1.42A7.17,7.17,0,0,0,41,9.49Z"/><path class="cls-1" d="M50.39,13.63l1.68-7.86h-1.2L51.24,4h1.21l.63-3h1.58L54,4h1.53l-.38,1.78H53.65l-1.49,6.91V13a.73.73,0,0,0,.09.42.57.57,0,0,0,.44.26l.81-.08-.35,1.64L52,15.36c-1.08.07-1.62-.4-1.62-1.43Z"/><path class="cls-1" d="M58.5,4.12h1.61l-2.3,10.82H56.19ZM59.35,0H61l-.44,2.08H58.92Z"/><path class="cls-1" d="M64.51,14.94,63.45,4.08h1.8L65.76,13l4.55-8.91H72L66.17,14.94Z"/><path class="cls-1" d="M72.66,12a5.1,5.1,0,0,1,.62-1.49,4.47,4.47,0,0,1,3.3-1.88l.84-.06.61,0a2.7,2.7,0,0,0,.51-.1,1.43,1.43,0,0,0,1.3-1.25,2.61,2.61,0,0,0,.06-.53c0-.92-.58-1.38-1.78-1.38A2.39,2.39,0,0,0,75.55,7.4H74.1a4.41,4.41,0,0,1,4.41-3.62c1.45,0,2.4.41,2.84,1.21a2.35,2.35,0,0,1,.14,1.64l-1.32,6.19a1.44,1.44,0,0,0,0,.39c0,.29.11.46.32.51l.6-.1-.27,1.32a2,2,0,0,1-1.1.22c-.77,0-1.15-.36-1.15-1.07a2.46,2.46,0,0,1,.07-.57,5.16,5.16,0,0,1-3.7,1.76,2.1,2.1,0,0,1-2.21-1.58,3,3,0,0,1-.16-1,2.33,2.33,0,0,1,.06-.53Zm6.7-2.63a2.09,2.09,0,0,1-.92.37l-1.67.4c-1.48.34-2.32,1-2.53,2a2.59,2.59,0,0,0-.06.52c0,.74.45,1.11,1.34,1.11a4.12,4.12,0,0,0,2.68-1.19,2.22,2.22,0,0,0,.74-1.29Z"/><path class="cls-1" d="M84.13,13.63l1.68-7.86h-1.2L85,4h1.2l.64-3h1.57l-.63,3h1.52l-.37,1.78H87.39L85.9,12.68V13a.73.73,0,0,0,.09.42.55.55,0,0,0,.43.26l.82-.08-.35,1.64-1.15.08c-1.07.07-1.61-.4-1.61-1.43Z"/><path class="cls-1" d="M92.23,4.12h1.62L91.54,14.94H89.93ZM93.09,0h1.62l-.44,2.08H92.66Z"/><path class="cls-1" d="M97.59,6.72Q99.27,3.78,102,3.78a2.89,2.89,0,0,1,2.93,1.87,5.17,5.17,0,0,1,.39,2.05,8.45,8.45,0,0,1-.21,1.8,9.76,9.76,0,0,1-1,2.77c-1.14,2-2.64,3-4.51,3s-2.87-1-3.16-3A8.53,8.53,0,0,1,97.59,6.72Zm.51,2.77A8.27,8.27,0,0,0,98,11.3c0,1.58.67,2.38,2,2.38s2.27-.78,3-2.34a8.25,8.25,0,0,0,.78-3.68c0-1.53-.7-2.3-2-2.3a3,3,0,0,0-2.44,1.42A7.33,7.33,0,0,0,98.1,9.49Z"/><path class="cls-1" d="M107.22,14.94l2.31-10.86H111l-.34,1.57a4.2,4.2,0,0,1,1.78-1.51A3.07,3.07,0,0,1,114,3.78a2.14,2.14,0,0,1,2.42,1.75,5.06,5.06,0,0,1,0,2l-1.57,7.37H113.2l1.44-6.73a4.75,4.75,0,0,0,.12-1.91,1.21,1.21,0,0,0-1.35-.89A2.67,2.67,0,0,0,112,5.8a4.25,4.25,0,0,0-1.9,2.92l-1.31,6.22Z"/><path class="cls-2" d="M62.92,51.18,12.57,287.6H1.86l51.9-244.4H73.65L52.11,280.57,131.53,43.21h19.65L99.29,287.61l-11,0L138.64,51.17,58.92,287.61H42.84Z"/><path class="cls-3" d="M62.92,51.18,12.57,287.6H1.86l51.9-244.4H73.65L52.11,280.57,131.53,43.21h19.65L99.29,287.61l-11,0L138.64,51.17,58.92,287.61H42.84Z"/></g></g></svg>