<svg xmlns="http://www.w3.org/2000/svg" viewBox="0 0 147.13 42.44"><defs><style>.cls-1{fill:#fff;}</style></defs><g id="レイヤー_2" data-name="レイヤー 2"><g id="レイヤー_2-2" data-name="レイヤー 2"><path class="cls-1" d="M19.52,28.89h.12V.8h7.58v41H17.8L7.69,13.09H7.58V41.81H0V.8H9.53Z"/><path class="cls-1" d="M61.62,7.58H47v9.65H60.76V24H47V35H62.19v6.78H38.71V.8H61.62Z"/><path class="cls-1" d="M77.58.8l4.54,30.32h.11L87.06.8H95l4.83,30.32h.11L104.46.8h7.92l-7.46,41H95.67L91.08,12.06H91L86.37,41.81H77.12L69.66.8Z"/><path class="cls-1" d="M128.12,30.21a13.14,13.14,0,0,0,.23,2.61,4.58,4.58,0,0,0,.86,2,4.11,4.11,0,0,0,1.69,1.26,6.7,6.7,0,0,0,2.67.46A5.28,5.28,0,0,0,137,35.29a4.64,4.64,0,0,0,1.52-3.82,6.8,6.8,0,0,0-.37-2.38,4.63,4.63,0,0,0-1.24-1.81,8.66,8.66,0,0,0-2.26-1.47,32.85,32.85,0,0,0-3.48-1.35,28.76,28.76,0,0,1-4.76-2A12.61,12.61,0,0,1,123,19.9a9.19,9.19,0,0,1-2-3.39,14,14,0,0,1-.64-4.45q0-6.09,3.39-9.07t9.3-3a20.36,20.36,0,0,1,5.09.6,10.64,10.64,0,0,1,4,2A9.07,9.07,0,0,1,144.86,6a12.17,12.17,0,0,1,.95,5v1.14h-7.93a8.19,8.19,0,0,0-1-4.5,3.8,3.8,0,0,0-3.45-1.58,5.75,5.75,0,0,0-2.3.4,3.86,3.86,0,0,0-1.46,1.06,3.81,3.81,0,0,0-.75,1.52,8.09,8.09,0,0,0-.2,1.78A5.88,5.88,0,0,0,129.5,14a7.12,7.12,0,0,0,3.44,2.38l6.38,2.76a19.67,19.67,0,0,1,3.84,2.15,10.5,10.5,0,0,1,2.39,2.42,8,8,0,0,1,1.23,2.84,15.82,15.82,0,0,1,.35,3.44q0,6.49-3.77,9.45t-10.48,3q-7,0-10-3t-3-8.72V29h8.27Z"/></g></g></svg>