<svg xmlns="http://www.w3.org/2000/svg" viewBox="0 0 79.13 405.67"><defs><style>.cls-1{fill:blue;}.cls-2{fill:#fff;}</style></defs><g id="レイヤー_2" data-name="レイヤー 2"><g id="レイヤー_1-2" data-name="レイヤー 1"><rect class="cls-1" x="50.05" width="29.08" height="234.52"/><rect class="cls-1" y="147.17" width="29.08" height="258.51"/><path class="cls-2" d="M63.89,37v-.69h-4V37H57.57v-4.1A12.14,12.14,0,0,1,56,36l-2.45-1.1a10.32,10.32,0,0,0,2.33-4c.6-1.86.58-2.7.58-7.78h9.61v6.49H58.55a3.05,3.05,0,0,1-.17.71h7.76V37Zm1.89-15.72a7,7,0,0,1-1.36-.57v1.88H58.29V21.34A23.2,23.2,0,0,1,56,22.91L54.21,21.1a10.73,10.73,0,0,0,5.37-4.84l2.6.16s.52,0,.52.29a.24.24,0,0,1-.05.14,14.31,14.31,0,0,0,4.46,2.53ZM63.73,27H58.84c0,.4,0,.45-.07.88h5Zm0-2.24H58.89v.78h4.84Zm-2.48-6.18a17.2,17.2,0,0,1-2,2h4.87A16.12,16.12,0,0,1,61.25,18.57Zm2.64,13.57h-4v2.22h4Zm6.75-12c-.35.26-.38.26-.38.36V31.45H67.88V19.36l2.31.21c.21,0,.62.1.62.38C70.81,20,70.74,20.1,70.64,20.17Zm4-2.7c-.07.05-.29.19-.29.31V34.05c0,2.29-1.19,2.5-3.84,2.55l-1.26-2.77c.48,0,1.55.05,2,.05.19,0,.53,0,.53-.62V16.45l2.43.28c.16,0,.67.1.67.41C74.94,17.23,74.86,17.33,74.65,17.47Z"/><path class="cls-2" d="M74.46,65.6H63.82c-3.53,0-4.48-1-5.39-2.28-.62.54-1.36,1.09-1.6,1.26s-1.24.83-1.33.93-.22.6-.31.6-.19,0-.34-.29l-1.28-2.55a16.64,16.64,0,0,0,3-1.51V56.3H54.35V53.94h5v7.37c0,1.77,2.43,2.17,4.79,2.17a108.29,108.29,0,0,0,11.38-.71Zm-17-15.09a10.14,10.14,0,0,0-2.58-3.2l1.91-1.5A8.67,8.67,0,0,1,59.34,49Zm3.24,3.62V52h5.39V50.15H63.2A14,14,0,0,1,62.15,52l-2.24-1.14a15.38,15.38,0,0,0,2.36-5l2.32.55c.35.09.47.19.47.33s-.07.17-.26.24-.21.12-.26.21a5.41,5.41,0,0,1-.29.77h1.81V45.5l2.63.21c.21,0,.62,0,.62.24s-.41.43-.41.55V48h4.34v2.19H68.9V52h5.7v2.12Zm9.54,8.09v-.74H64.32v.74H61.8v-6.8h11v6.8Zm0-4.72H64.32v1.86h5.89Z"/><path class="cls-2" d="M67.07,80.25v3.34a6.19,6.19,0,0,1,.69,2.91,10.74,10.74,0,0,1-1.22,4.6,16.54,16.54,0,0,1-3.24,4.44l-2.67-1.38A7.7,7.7,0,0,0,64,90.24a4.63,4.63,0,0,1-1.29.24,3,3,0,0,1-2-.74,4.28,4.28,0,0,1-1.24-3.31c0-2.63,1.31-4.44,3.75-4.44a3.16,3.16,0,0,1,1.12.19l0-1.79c-2.12.12-5.72.34-8.75.72V78.34c1.62,0,3.67,0,8.68-.24,0-.73,0-2-.17-3.74l2.65.17c.55,0,.69.09.69.33s0,.22-.21.36-.19.19-.19.28V78c3.31-.19,4.05-.26,6.48-.45v2.57C71.74,80.08,70.17,80.13,67.07,80.25Zm-2.65,4.34a1.23,1.23,0,0,0-.88-.33c-1,0-1.63.83-1.63,2.1,0,1.43.77,2,1.32,2s1.64-.53,1.64-2.22A2.25,2.25,0,0,0,64.42,84.59Z"/><path class="cls-2" d="M64.39,123.45c-3,0-4.5-1.51-4.5-3.27a3.33,3.33,0,0,1,3.5-3.17c2.48,0,4,1.95,4.7,2.79a4.2,4.2,0,0,0,1.58-3.18c0-2.36-2.32-3.12-3.87-3.12a6.48,6.48,0,0,0-2.72.6,26.73,26.73,0,0,0-4.91,4.27l-2-2.1A47.14,47.14,0,0,0,65,107.66a22.31,22.31,0,0,1-5.58.59l-.55-2.67c.57,0,1.93.15,2.67.15a26.82,26.82,0,0,0,7.23-1.2L70,106.46a60.77,60.77,0,0,0-5.3,5.11,18.82,18.82,0,0,1,2.32-.14,5.25,5.25,0,0,1,5.29,5.27C72.31,120.66,68.59,123.45,64.39,123.45Zm-.9-4.35a1.05,1.05,0,0,0-1.19,1c0,.83,1.09,1.07,2,1.07a6.9,6.9,0,0,0,1.62-.21C65.56,120.42,64.85,119.1,63.49,119.1Z"/><path class="cls-2" d="M56.55,138a23.45,23.45,0,0,1-1,5l-2.24-.65a22.65,22.65,0,0,0,1.1-5.56l2.21.41c.46.07.48.21.48.33C57.12,137.81,56.83,137.9,56.55,138Zm4.74,3.6v-1.93a8.58,8.58,0,0,0-1.43-1.88v15.48H57.22V132.73l3,.33c.17,0,.41.07.41.29s-.19.31-.34.38-.43.21-.43.47v2.91l1-1A9,9,0,0,1,63,138.38l-1.55,1.24h5.12v-.93H63.11V136.9h3.45v-1H61.7v-1.82h4.86v-1.38l2.91.21c.12,0,.31.1.31.2a.4.4,0,0,1-.16.26.69.69,0,0,0-.36.71h5.51V136H69.26v1h4v1.79h-4v.93h5.6v1.95Zm8.45,11.91L68.62,151a8.9,8.9,0,0,0,1.45.2c.52,0,.69-.24.69-.62v-.67H65.11v3.34h-2.6V142.53H73.39v9C73.39,153.33,71.74,153.45,69.74,153.48Zm1-9H65.11v.88h5.65Zm0,2.62H65.11v1h5.65Z"/><path class="cls-2" d="M59.36,179a12.3,12.3,0,0,1-3.22,3.74L54,180.93a11.16,11.16,0,0,0,3.41-3.77l2.31,1.07c.14.08.38.22.38.46S59.7,179,59.36,179Zm13.91-1.77c-.12,0-2.15-.24-2.77-3.72l-.76.93a17.09,17.09,0,0,0-1.2-1.26,13.92,13.92,0,0,1-2.38,4L64,175.87l.26-.21c-1.69.26-3.41.5-5.13.69-.36.05-2,.17-2.41.21s-.93.08-1.07.27-.26.31-.36.31-.31-.41-.33-.55l-.36-2c1,0,1.93,0,4-.19v-.83H55.4v-1.81h.81l-1.5-1.51c1.34-.54,2.08-1.07,2.43-2.21H54.76v-1.86h4v-.86H55.47v-1.79h3.27v-1.46l2.41.15c.1,0,.72,0,.72.31s-.24.24-.48.43v.57h3.27v1.79H61.39v.86h3.74l-.07-.74,2.41-.17c0-1.19-.07-1.91-.24-3.53l2.34.29c.43,0,.67.16.67.4s0,.14-.1.22c-.26.23-.28.23-.31.33s0,1.81,0,2.15l3.62-.29a19.31,19.31,0,0,0-.76,5.63c0,.57,0,2.93.57,2.93.22,0,.36-.78.43-1.24l1.74,1.39C75.13,174.87,74.48,177.23,73.27,177.23Zm-13-7.41V168H57.64l1.53.64c.1.05.36.14.36.38s-.22.22-.5.24a4.82,4.82,0,0,1-2.43,2.46h2.07v-1.17l2,.12A1.09,1.09,0,0,1,60.29,169.82Zm1.08,12.4a16.4,16.4,0,0,0-.86-4.27l2.55-.41a23.5,23.5,0,0,1,1,4.22Zm3.74-11.79c-.26.31-.52.55-1.48.55H62a4.43,4.43,0,0,1-.55,0v.81h2.84v1.81H61.41v.67c.91-.07,1.72-.15,3-.31l.12,1.5a10.3,10.3,0,0,0,2.19-3.84A13.51,13.51,0,0,0,65.11,170.43Zm.14-2.79V168H62.56v.64c0,.43.14.5.57.5s.6-.14.74-.71l1.74.47a6.43,6.43,0,0,1-.21.93l1-1.21c.17.12.6.45.91.66a10.21,10.21,0,0,0,.14-1.81Zm1,14.46a14.45,14.45,0,0,0-1.1-4l2.32-.65a15.79,15.79,0,0,1,1.33,3.92Zm3.48-14.74a24.43,24.43,0,0,1-.45,3.53c.33.31.71.64,1.12,1.07,0-1.31,0-2.31.12-4.65Zm3,15.07a19.85,19.85,0,0,0-3.27-4.1l2.15-1.48a18.9,18.9,0,0,1,3.26,3.89Z"/><path class="cls-2" d="M68.11,202.68c0,.93,0,3.89,0,4.7H65.4c.07-1.36.09-2.53.11-3.58-.9.46-3.38,1.7-3.38,3.37S64,209,65.71,209a27.22,27.22,0,0,0,6.08-.77V211a39.33,39.33,0,0,1-5.68.36c-1.33,0-4.1,0-5.6-1.6a3.26,3.26,0,0,1-.91-2.34c0-3,2.2-4.08,5.77-5.91a1.65,1.65,0,0,0-1.81-1.58c-2.34,0-3.77,2.17-5.08,4.32l-2.34-1.46a31.39,31.39,0,0,0,4.7-6.55c-1.36.07-2.1.09-3.1.09l-.29-2.48a33.66,33.66,0,0,0,4.56.1,17.77,17.77,0,0,0,1.19-3.18l3,.53c.07,0,.48.07.48.24s-.1.21-.24.26-.52.24-.55.24-.62,1.36-.74,1.62a20.17,20.17,0,0,0,4.68-1.22l-.17,2.67a48.19,48.19,0,0,1-5.7.91,25.62,25.62,0,0,1-1.36,2.36,4.68,4.68,0,0,1,2-.5,3.21,3.21,0,0,1,3.25,2.41c2.79-1.31,3.1-1.45,4.22-2l.81,2.72C71,201.61,69.88,202,68.11,202.68Z"/><path class="cls-2" d="M18.07,175.18l-2.22-1.88a22,22,0,0,0,4.34-5.15H5.26v-2.58h16c.31,0,.69-.36.84-.52l2.19,2.22A56.08,56.08,0,0,1,18.07,175.18ZM16,169.36c-.05.08-.33.31-.36.41s-.14,1.72-.19,2a14.75,14.75,0,0,1-6.1,10.73L6.76,181c5-3.49,6.16-7.28,6-12.24l2.79.14c.5,0,.57,0,.57.22S16,169.27,16,169.36Z"/><path class="cls-2" d="M11.44,198.44a14.94,14.94,0,0,0-1.84-3.82l2.22-.86a15.26,15.26,0,0,1,1.81,3.84Zm12.45-4.27c-.29.12-.29.19-.46.84a17.22,17.22,0,0,1-9,11.78l-1.93-1.72c5.12-2.53,7.91-6,8.8-12.28l2.33.69c.31.09.48.26.48.45S24.08,194.07,23.89,194.17Zm-8.06,3.12a15.7,15.7,0,0,0-1.72-3.86l2.15-.83a15.65,15.65,0,0,1,1.62,3.86Z"/><path class="cls-2" d="M14.87,236.53c-2.81,0-4-.33-5.24-.95a4.56,4.56,0,0,1-2.44-4.08c0-3,2.32-4.51,4.94-6.06a7.6,7.6,0,0,1-1.41-2.15c-.33-.78-.45-1.48-1.21-6l3.05-.45a19.31,19.31,0,0,0,.69,5.65,2.89,2.89,0,0,0,1.38,1.62l6-2.81.88,2.91a35.83,35.83,0,0,0-8.82,3.76c-1.07.67-2.84,1.89-2.84,3.49S11.72,234,14.23,234a31.24,31.24,0,0,0,7.37-1.07V236A43.5,43.5,0,0,1,14.87,236.53Z"/><path class="cls-2" d="M23.72,255.16c-.45-.14-1-.36-1.31-.5v1.43H16.23v.64h5.23v1.1H16.23v.64h5.23v1.15H16.23v.67h8.09c-.48,5.63-2.34,5.89-4.84,5.86l-.91-2.43c1.31,0,1.62,0,1.88-.21a3.33,3.33,0,0,0,.65-1.72H17.16A8,8,0,0,1,18.33,264l-1.81.93a14.89,14.89,0,0,0-1.27-2.45l1.34-.67H10v.5H7.74l.43.22c.12,0,.29.19.29.31s-.12.23-.5.4a14.08,14.08,0,0,1-1.43,3l-2.44-.93a11.75,11.75,0,0,0,2.1-3.7l1,.48v-7.37h4.34l-.24-.67v.26H6.05V252.2l-2.24-.95a7.87,7.87,0,0,0,2.05-2.51L7,249v-.43H4.52v-1.84H7v-.88l2.24.1c.19,0,.52,0,.52.23a.37.37,0,0,1-.19.29s-.31.19-.31.26h1.15v-.9l2,0c.24,0,.74,0,.74.26a.47.47,0,0,1-.21.31c-.17.12-.34.24-.34.31H15.4v1.84H12.65v.55H10.44v-.55H9.29v.55H7.81c.43.07.58.16.46.38H15c0,.21,0,.29-.05.57a14.6,14.6,0,0,0,2.39-4.39l2.07.43c.1,0,.45.1.45.31s-.19.31-.45.46a1.16,1.16,0,0,0-.36.33h5.8v2.15H23.36a8.59,8.59,0,0,1-1.59,2.55A10.78,10.78,0,0,0,25.15,253ZM7.19,250.87c-.12.14-.16.23-.35.47h4.48v1.29c.79-.07,1.12-.62,1.31-1.76Zm2.41,1.67H7.77v.52H9.6ZM10,265.65a22.76,22.76,0,0,0-.72-3l1.79-.54a15,15,0,0,1,1,2.95Zm3.17-9.56H10v.64h3.22Zm0,1.74H10v.64h3.22Zm0,1.79H10v.67h3.22Zm6.87-6.34a13.87,13.87,0,0,1-3.53,1.35l-1.46-2.07a9.61,9.61,0,0,0,3-.93,10.17,10.17,0,0,1-.93-1,6.2,6.2,0,0,1-.62,1L14.82,251c-.11,2.86-1.71,3.36-2.62,3.65H22.39A17.23,17.23,0,0,1,20.05,253.28Zm-6.66,12a19.74,19.74,0,0,0-.85-2.75l1.88-.57a10.28,10.28,0,0,1,.93,2.6Zm5.42-16a3.33,3.33,0,0,0,1,1.09,3.9,3.9,0,0,0,.88-1.09Z"/><path class="cls-2" d="M19.09,277c-.28,0-.35.09-1,.71s-2.82,2.75-5.27,5c-1.58,1.48-1.7,1.59-1.7,2.05a1,1,0,0,0,.41.83,48.89,48.89,0,0,1,8.06,8l-2.46,2.29A39.59,39.59,0,0,0,8.93,287a2.79,2.79,0,0,1-1.19-2.09,4.1,4.1,0,0,1,1.65-2.68A66.2,66.2,0,0,0,17,274.41l2.19,1.69c.05,0,.5.41.5.65S19.64,276.94,19.09,277Z"/><path class="cls-2" d="M22.7,318.06c-.41,0-1.79-.22-3.68-2.08a10.88,10.88,0,0,1-2.26,2.1l-1.91-1.72h-4.1v.79h-2V312h6.34v4.13a10,10,0,0,0,2.51-2.08,16.5,16.5,0,0,1-1.93-5.58H8.22c0,5.13-.43,7.23-2,9.73L3.93,317a13.32,13.32,0,0,0,1.9-7.71c0-1,0-2.09-.09-3.17H15.3a20.26,20.26,0,0,1-.05-2.31l2.37.14c.42,0,.69.1.69.29s-.48.38-.55.47a13.26,13.26,0,0,0,0,1.41h2.6c-.36-.4-.67-.71-1.29-1.36l2-1.07a8.69,8.69,0,0,1,1.71,1.72l-1.12.71h3.1v2.34H18A10.61,10.61,0,0,0,19.12,312a19.06,19.06,0,0,0,1.62-3.27l2.07,1c.46.21.48.31.48.38s-.17.17-.31.19-.21.05-.26.15A20.27,20.27,0,0,1,20.57,314c.38.36,1.05.93,1.48.93s.65-1,.69-1.64l2.1,1.28C24.79,315.2,24.27,318.06,22.7,318.06ZM9.15,319.65c-.34.1-.38.12-.43.2a15.3,15.3,0,0,1-2.39,4.43l-2.14-1.43a17.12,17.12,0,0,0,2.45-4.79l2.22,1.05c.15.07.43.21.43.4S9.24,319.63,9.15,319.65Zm-.29-8.56v-1.81h6.3v1.81Zm10.93,12c-.22.36-.7,1.17-2.58,1.17H11.7c-.91,0-2-.57-2-1.41v-4.63l2.49.15c.38,0,.52,0,.52.21s-.05.19-.21.29-.2.12-.2.21v2c0,.67.84.71,1.13.71h3c.64,0,1.53-.07,1.69-2.17l2.2,1.36A3.75,3.75,0,0,1,19.79,323.09Zm-6.52-9.61H10.75v1.29h2.52ZM15,321A18.7,18.7,0,0,0,13,318.41l1.81-1.24A20.05,20.05,0,0,1,17,319.82Zm7.82,2.65a17.25,17.25,0,0,0-2.88-4.2l2.28-1.41A28.83,28.83,0,0,1,25,322.25Z"/><path class="cls-2" d="M23.51,350c-.58,3-1.48,3.58-4.11,3.62l-1.14-2.48a6.17,6.17,0,0,0,1.12.12A1.5,1.5,0,0,0,21.05,350a55.92,55.92,0,0,0,.93-9.68h-1.5c-.38,4.72-1.36,8.75-4.8,13.07l-2.43-1.22a15.86,15.86,0,0,0,1.22-1.29c-1.15.15-6.8.79-8.09.93-.52.07-.59.05-.74.27s-.26.35-.47.35-.31-.12-.36-.45l-.34-2.17c1.48,0,3.72-.22,4.56-.29v-1.26H5.17v-1.79H9v-1H5.33v-6.29H9v-1H4.36v-1.81H9v-1c-.5,0-1.29.1-2.93.1l-.84-1.89a28.35,28.35,0,0,0,8.52-.71L15,334.4a.87.87,0,0,1,.17.35c0,.1-.08.2-.29.2s-.65-.2-.79-.2-.86.15-1,.17l-1.58.19v1.22h4.7v1.81h-4.7v1h3.72v6.29H11.46v1H15.3v1.79H11.46v1.1l3.89-.34v.69a13.1,13.1,0,0,0,1.6-3.55A26.39,26.39,0,0,0,18,340.29H16.38v-2.36h1.78c0-2.6,0-2.63,0-4.8l2.57.12c.19,0,.58,0,.58.34a.37.37,0,0,1-.15.28c-.38.36-.43.38-.45.65,0,.47-.1,2.86-.12,3.41h3.86A80,80,0,0,1,23.51,350ZM9,340.57H7.53v1H9ZM9,343H7.53v1.05H9Zm4-2.44H11.46v1H13ZM13,343H11.46v1.05H13Z"/><path class="cls-2" d="M9.58,380.81l-1.89.74a7.49,7.49,0,0,1-.88-1.88,21,21,0,0,1-1-6.28,41.3,41.3,0,0,1,.36-4.69,48.91,48.91,0,0,1,1-5.44l2.44.88c.16.07.62.24.62.43a.29.29,0,0,1-.12.21l-.41.17c-.36.22-1.38,4.53-1.38,8.13a13.25,13.25,0,0,0,.33,3.27l1-1.67,1.4.76A21.16,21.16,0,0,0,9.58,380.81Zm8.54-.69c-4.34,0-5.25-1.17-5.32-5.2l2.6-.36c0,2.27.26,2.91,2.67,2.91a19.41,19.41,0,0,0,5.44-.74v3A32.82,32.82,0,0,1,18.12,380.12Zm-1.91-12.26c-.19,0-1.29,0-2.55-.12v-2.62a21.77,21.77,0,0,0,3.05.26,16.6,16.6,0,0,0,5.65-1v2.77A32.41,32.41,0,0,1,16.21,367.86Z"/></g></g></svg>