<svg xmlns="http://www.w3.org/2000/svg" viewBox="0 0 109.87 287.88"><defs><style>.cls-1{fill:blue;}</style></defs><g id="レイヤー_2" data-name="レイヤー 2"><g id="レイヤー_2-2" data-name="レイヤー 2"><path class="cls-1" d="M3.05,8.91l-1.34,6.3H0L3.19.26h5.7a2.63,2.63,0,0,1,2.86,2.06,4.63,4.63,0,0,1,0,2.16A5.67,5.67,0,0,1,9.32,8.27,4.16,4.16,0,0,1,7,8.91ZM4.53,2,3.41,7.2H6.82A3,3,0,0,0,10,4.48a3.92,3.92,0,0,0,.09-.8C10.06,2.57,9.37,2,8,2Z"/><path class="cls-1" d="M20.42,11.8H22a6.18,6.18,0,0,1-2.29,3,4.49,4.49,0,0,1-2.7.75,2.76,2.76,0,0,1-2.85-1.92,5.45,5.45,0,0,1-.31-1.88,8.15,8.15,0,0,1,.18-1.65A10.64,10.64,0,0,1,15,7.44a6.42,6.42,0,0,1,3.11-3.16,4.1,4.1,0,0,1,1.68-.39A2.63,2.63,0,0,1,22,4.94c.08.1.2.29.38.58a5.68,5.68,0,0,1,.37,2.18,13.22,13.22,0,0,1-.31,2.69H15.67a6.74,6.74,0,0,0-.16,1.39c0,1.44.69,2.16,2.08,2.16a2.93,2.93,0,0,0,2.34-1.23A2.28,2.28,0,0,0,20.42,11.8ZM16,8.92h5.13a5.4,5.4,0,0,0,.12-1.08A2.79,2.79,0,0,0,21,6.68a1.76,1.76,0,0,0-1.77-1,3.15,3.15,0,0,0-2.58,1.69A4.25,4.25,0,0,0,16,8.92Z"/><path class="cls-1" d="M25,15.21,27.3,4.34h1.48l-.39,1.85A6.1,6.1,0,0,1,29.9,4.63a3.5,3.5,0,0,1,2-.54L31.47,6a3.71,3.71,0,0,0-2.28.71,3.22,3.22,0,0,0-1.27,2l-1.37,6.5Z"/><path class="cls-1" d="M32.16,15.21l2-9.34H32.87l.32-1.53h1.27l.36-1.7C35.19.88,36,0,37.38,0l1.1.1-.34,1.65h-.58c-.66,0-1.07.38-1.23,1.15L36,4.34h1.57l-.33,1.53H35.69l-2,9.34Z"/><path class="cls-1" d="M45.68,11.8h1.6a6.18,6.18,0,0,1-2.29,3,4.49,4.49,0,0,1-2.7.75,2.76,2.76,0,0,1-2.85-1.92,5.46,5.46,0,0,1-.32-1.88,8.2,8.2,0,0,1,.19-1.65,10.64,10.64,0,0,1,.92-2.65,6.42,6.42,0,0,1,3.11-3.16A4.1,4.1,0,0,1,45,3.89a2.63,2.63,0,0,1,2.23,1.05c.08.1.2.29.38.58A5.68,5.68,0,0,1,48,7.7a13.22,13.22,0,0,1-.31,2.69H40.93a6.74,6.74,0,0,0-.16,1.39c0,1.44.69,2.16,2.08,2.16a2.93,2.93,0,0,0,2.34-1.23A2.28,2.28,0,0,0,45.68,11.8ZM41.24,8.92h5.13a5.4,5.4,0,0,0,.12-1.08,2.79,2.79,0,0,0-.22-1.16,1.76,1.76,0,0,0-1.77-1,3.15,3.15,0,0,0-2.58,1.69A4.25,4.25,0,0,0,41.24,8.92Z"/><path class="cls-1" d="M50.87,8.87a6.63,6.63,0,0,1,3-4.2,4.34,4.34,0,0,1,2.18-.62,2.57,2.57,0,0,1,2.63,1.56A3.74,3.74,0,0,1,59,7.05a4.8,4.8,0,0,1-.1.92H57.44V7.55a1.61,1.61,0,0,0-1.82-1.84c-1.65,0-2.8,1.49-3.43,4.47A7,7,0,0,0,52,11.67a2.82,2.82,0,0,0,.29,1.38,1.6,1.6,0,0,0,1.49.89,2.53,2.53,0,0,0,1.81-.81,4.28,4.28,0,0,0,1-1.75h1.52A5.85,5.85,0,0,1,55.47,15a4.23,4.23,0,0,1-2,.52,3.28,3.28,0,0,1-2.33-1,3.17,3.17,0,0,1-.74-1.9,6.8,6.8,0,0,1,.06-2.22c0-.18.08-.32.11-.43Z"/><path class="cls-1" d="M60.67,13.9,62.36,6H61.15l.38-1.79h1.2l.63-3h1.58l-.63,3h1.52L65.46,6H63.93l-1.48,6.9c0,.14,0,.26,0,.36a.79.79,0,0,0,.09.43A.58.58,0,0,0,63,14l.81-.08-.34,1.64-1.15.08c-1.08.08-1.61-.4-1.61-1.43C60.68,14.1,60.68,14,60.67,13.9Z"/><path class="cls-1" d="M68.78,4.38H70.4L68.09,15.21H66.47ZM69.64.3h1.61l-.43,2.08H69.2Z"/><path class="cls-1" d="M74.13,7q1.68-2.93,4.41-2.93a2.9,2.9,0,0,1,2.94,1.87,5.3,5.3,0,0,1,.38,2,9,9,0,0,1-.2,1.8,9.78,9.78,0,0,1-1,2.77q-1.69,3-4.5,3t-3.17-3A8.59,8.59,0,0,1,74.13,7Zm.52,2.77a7.24,7.24,0,0,0-.15,1.81c0,1.59.67,2.38,1.94,2.38s2.28-.78,3-2.34a8.49,8.49,0,0,0,.78-3.67q-.06-2.31-2-2.31A3,3,0,0,0,75.76,7,7.16,7.16,0,0,0,74.65,9.75Z"/><path class="cls-1" d="M83.77,15.21,86.08,4.34h1.5l-.33,1.58A4.11,4.11,0,0,1,89,4.4a3.21,3.21,0,0,1,1.49-.35,2.14,2.14,0,0,1,2.43,1.74,5.24,5.24,0,0,1,0,2l-1.58,7.38H89.75l1.43-6.74a4.57,4.57,0,0,0,.12-1.91c-.15-.59-.59-.89-1.35-.89a2.64,2.64,0,0,0-1.41.4A4.25,4.25,0,0,0,86.65,9l-1.32,6.22Z"/><path class="cls-1" d="M44.39,149.61,15,287.86l-10.65,0L56.16,43.48H90q19.92,0,19.92,12.86a19.31,19.31,0,0,1-.59,4.53L95,128.38q-4.58,21.23-27.87,21.23Zm43.35-97H65L46.18,140.47H69q12.45,0,15.12-12.08L97.94,63.23a17.34,17.34,0,0,0,.29-3Q98.23,52.62,87.74,52.62Z"/></g></g></svg>