<svg xmlns="http://www.w3.org/2000/svg" viewBox="0 0 563.37 116.95"><defs><style>.cls-1{fill:blue;}</style></defs><g id="レイヤー_2" data-name="レイヤー 2"><g id="レイヤー_2-2" data-name="レイヤー 2"><path class="cls-1" d="M39.88,2.22q8.7,0,14.64,2.92a26.82,26.82,0,0,1,9.57,7.68,29.83,29.83,0,0,1,5.22,10.84A49,49,0,0,1,70.9,36.08a40.53,40.53,0,0,1-2.61,15.19A27.74,27.74,0,0,1,61,61.88a30.6,30.6,0,0,1-11.32,6.17A49.68,49.68,0,0,1,35,70.11H22.79v45.1H0V2.22Zm-7,51.11a15.06,15.06,0,0,0,11-4.11q4.19-4.12,4.19-12.82t-3.64-13Q40.83,19,32.28,19H22.79V53.33Z"/><path d="M125,2.22q14.24,0,22.15,7.2t7.92,21.91q0,11.4-4.59,18.6t-14.25,9.26v.31q8.55,1.28,12.51,5.54t4.9,13.77c.21,2.11.37,4.41.48,6.88s.21,5.25.31,8.31q.31,9,1,13.77c.64,3.16,2,5.33,4.12,6.49v.95H134.83a12.35,12.35,0,0,1-2.22-5.46q-.47-3.09-.63-6.41l-.63-21.68Q131,75,128,71.21T117.9,67.42H105.71v47.79H82.92V2.22Zm-9.81,49.37q8.22,0,12.66-3.88t4.43-13.05Q132.3,19,116.47,19H105.71v32.6Z"/><path d="M170.52,35.05a52.42,52.42,0,0,1,5.22-18.59A29.25,29.25,0,0,1,187.37,4.35Q195,0,207.78,0T228.2,4.35a29.25,29.25,0,0,1,11.63,12.11,52.42,52.42,0,0,1,5.22,18.59,218.65,218.65,0,0,1,1.19,23.66,217.92,217.92,0,0,1-1.19,23.74A52.22,52.22,0,0,1,239.83,101a27.76,27.76,0,0,1-11.63,11.87Q220.6,117,207.78,117t-20.41-4.12A27.76,27.76,0,0,1,175.74,101a52.22,52.22,0,0,1-5.22-18.51,215.43,215.43,0,0,1-1.19-23.74A216.13,216.13,0,0,1,170.52,35.05ZM192.67,78.1a53.62,53.62,0,0,0,2.22,13,14.34,14.34,0,0,0,4.74,7.28,15.59,15.59,0,0,0,16.3,0,14.35,14.35,0,0,0,4.75-7.28,53.62,53.62,0,0,0,2.22-13q.56-8,.55-19.39T222.9,39.4a54.72,54.72,0,0,0-2.22-13q-1.67-5.07-4.75-7.36a15.59,15.59,0,0,0-16.3,0,14.42,14.42,0,0,0-4.74,7.36,54.72,54.72,0,0,0-2.22,13q-.55,7.92-.55,19.31T192.67,78.1Z"/><path d="M318.88,83.56q0,18-8.39,25.71T284.85,117q-9,0-14.79-2.45a21.88,21.88,0,0,1-9.18-7A26,26,0,0,1,256.21,97a60.93,60.93,0,0,1-1.27-12.66V79.44h20.89v3.48q0,9,2,13.38t8.15,4.35q6.17,0,8.15-4.35t2-13.38V2.22h22.79Z"/><path d="M397.69,20.89H357.33V47.48h38V66.15h-38V96.53h41.94v18.68H334.54V2.22h63.15Z"/><path d="M456.79,22.39q-2.93-5.61-10.68-5.62a10.65,10.65,0,0,0-7,2.3q-2.77,2.3-4.36,7.44A63.68,63.68,0,0,0,432.5,40q-.63,8.31-.63,20.33A194.79,194.79,0,0,0,432.74,81a45.39,45.39,0,0,0,2.69,12.27q1.81,4.35,4.59,5.85a13.1,13.1,0,0,0,6.4,1.51,15.09,15.09,0,0,0,5.62-1,9.52,9.52,0,0,0,4.51-4.12,26.57,26.57,0,0,0,3-8.7A79.24,79.24,0,0,0,460.67,72h22.79A101.93,101.93,0,0,1,482,89.41a39.44,39.44,0,0,1-5.3,14.4,26.37,26.37,0,0,1-10.92,9.66Q458.76,117,447.53,117q-12.81,0-20.41-4.12A27.71,27.71,0,0,1,415.49,101a52.42,52.42,0,0,1-5.23-18.51,218.06,218.06,0,0,1-1.18-23.74,218.78,218.78,0,0,1,1.18-23.66,52.63,52.63,0,0,1,5.23-18.59A29.19,29.19,0,0,1,427.12,4.35Q434.71,0,447.53,0q12.2,0,19.23,4a26.93,26.93,0,0,1,10.52,10,35.12,35.12,0,0,1,4.36,13.14,110.19,110.19,0,0,1,.87,13.21H459.72Q459.72,28,456.79,22.39Z"/><path d="M563.37,20.89H538.69v94.32H515.9V20.89H491.21V2.22h72.16Z"/></g></g></svg>