<svg xmlns="http://www.w3.org/2000/svg" viewBox="0 0 500.03 91.01"><defs><style>.cls-1{fill:none;stroke:#000;stroke-miterlimit:10;}</style></defs><g id="レイヤー_2" data-name="レイヤー 2"><g id="レイヤー_2-2" data-name="レイヤー 2"><path d="M30.37,90.22H24.12l-13-25.13C8.79,60.58,7.33,57.37,5.18,53H4.34c0,4.68.22,8.74.22,13.36V90.22H0V48.69H7.61L19.5,72c2.42,4.68,3.88,8.29,5.86,12.46h.9c-.17-4.46-.45-8.74-.45-13.64V48.69h4.56Z"/><path d="M56.92,72.69V90.22H52V72.69l-13.86-24h5.52l9.53,16.9c.56,1,1,1.92,1.57,2.88.62-1.07,1.08-1.92,1.69-3l9.47-16.79h5.13Z"/><path d="M83.74,86.05h20.57v4.17H78.84V48.69h4.9Z"/><path d="M144.26,69.43c0,13.63-7.21,21.58-17.13,21.58S110,83.17,110,69.54,117.27,48,127.13,48,144.26,55.73,144.26,69.43Zm-29.07,0c0,11.44,4.9,17.47,11.94,17.47s12-6,12-17.47S134.23,52,127.13,52,115.19,58,115.19,69.48Z"/><path d="M184.05,90.22h-6.26l-13-25.13c-2.31-4.51-3.78-7.72-5.92-12.12H158c0,4.68.22,8.74.22,13.36V90.22h-4.56V48.69h7.6L173.17,72c2.43,4.68,3.89,8.29,5.86,12.46h.91c-.17-4.46-.45-8.74-.45-13.64V48.69h4.56Z"/><path d="M206,55.73l12.11,12.06,12.12-12.06,2,2L220.12,69.82l12.17,12.12-2,2L218.14,71.85,206,84l-2-2,12.17-12.17L204,57.71Z"/><path d="M257.37,61.42h6.87V65h-6.87V82.73c0,3.21,1.41,4.67,4,4.67a16,16,0,0,0,3.6-.34l-.22,3.55a28.93,28.93,0,0,1-4.45.29c-4.85,0-7.44-2.37-7.44-7.33V65h-4.68V61.42h4.68v-9l4.51-1Z"/><path d="M270.5,68.3c1.58-5,5.69-7.55,11.44-7.55,6.93,0,10.42,3,10.42,9.58V80.87a69.8,69.8,0,0,0,.57,9.35h-4.17a33.41,33.41,0,0,1-.62-4.56,11.53,11.53,0,0,1-9.86,5.24c-5.58,0-8.85-3.39-8.85-8.4s2.82-8.28,9.46-9.47a79.2,79.2,0,0,1,9-.9V70.61c0-4.62-1.75-6.42-6.08-6.42a6.83,6.83,0,0,0-7,5.46Zm17.41,7a43.19,43.19,0,0,0-8,.9c-4.23.9-6,2.87-6,6.08s2,5.19,5.52,5.19c3.1,0,6.2-1.86,8.51-5.69Z"/><path d="M306.9,66.67c2.65-3.72,5.64-5.87,9.41-5.87s6.65,2.31,7.22,5.81c2.53-3.55,5.8-5.81,9.58-5.81,4.56,0,7.72,3,7.72,8.23V90.22H336.2V70.67c0-4.06-1.74-5.86-4.73-5.86-2.76,0-5.69,2.25-7.66,5.69V90.22H319.3V70.67c0-4.17-1.69-5.86-4.51-5.86-2.65,0-5.63,2.08-7.78,5.69V90.22h-4.5V61.42h4.39Z"/><path d="M356.16,55.9h-5.64V50.32h5.64Zm-.51,34.32H351V61.42h4.62Z"/><path d="M370.41,66.67c2.65-3.72,5.64-5.87,9.41-5.87s6.65,2.31,7.22,5.81c2.53-3.55,5.8-5.81,9.58-5.81,4.56,0,7.72,3,7.72,8.23V90.22h-4.63V70.67c0-4.06-1.74-5.86-4.73-5.86-2.76,0-5.69,2.25-7.66,5.69V90.22h-4.51V70.67c0-4.17-1.69-5.86-4.51-5.86-2.65,0-5.63,2.08-7.77,5.69V90.22H366V61.42h4.39Z"/><path d="M437.47,75.79c0,9.3-5.07,15.16-12.39,15.16s-12.35-5.75-12.35-15,5.08-15.16,12.4-15.16S437.47,66.5,437.47,75.79Zm-20.06.06c0,7.44,2.88,11.55,7.67,11.55s7.72-4.06,7.72-11.55-2.88-11.5-7.67-11.5S417.41,68.47,417.41,75.85Z"/><path d="M469,75.79C469,85.09,463.9,91,456.58,91s-12.34-5.75-12.34-15,5.07-15.16,12.39-15.16S469,66.5,469,75.79Zm-20.06.06c0,7.44,2.88,11.55,7.67,11.55s7.72-4.06,7.72-11.55-2.88-11.5-7.67-11.5S448.91,68.47,448.91,75.85Z"/><path d="M481.94,66.67c2.81-3.61,6.36-5.87,10.08-5.87,4.74,0,8,3,8,8.23V90.22h-4.68V70.67c0-4.12-1.75-5.86-4.85-5.86-2.7,0-5.8,2-8.39,5.69V90.22h-4.57V61.42h4.4Z"/><path d="M219.27,14.78h.08L222.24.38h4.06l-4.47,19.47h-5L212.32.38h4.19Z"/><path d="M227.54,6a9.13,9.13,0,0,1,.9-3.2,5.12,5.12,0,0,1,2-2.09,8.61,8.61,0,0,1,7,0,5.06,5.06,0,0,1,2,2.09,9.13,9.13,0,0,1,.9,3.2,39.38,39.38,0,0,1,.2,4.08,39.3,39.3,0,0,1-.2,4.09,9.2,9.2,0,0,1-.9,3.19,4.77,4.77,0,0,1-2,2,9.06,9.06,0,0,1-7,0,4.82,4.82,0,0,1-2-2,9.2,9.2,0,0,1-.9-3.19,39.3,39.3,0,0,1-.2-4.09A39.38,39.38,0,0,1,227.54,6Zm3.82,7.42a9.55,9.55,0,0,0,.38,2.23,2.52,2.52,0,0,0,.82,1.26,2.33,2.33,0,0,0,1.41.39,2.3,2.3,0,0,0,1.4-.39,2.52,2.52,0,0,0,.82-1.26,9.06,9.06,0,0,0,.38-2.23c.06-.92.1-2,.1-3.34s0-2.42-.1-3.33a9.42,9.42,0,0,0-.38-2.24,2.48,2.48,0,0,0-.82-1.26,2.24,2.24,0,0,0-1.4-.4,2.27,2.27,0,0,0-1.41.4,2.48,2.48,0,0,0-.82,1.26,10,10,0,0,0-.38,2.24q-.09,1.37-.09,3.33C231.27,11.43,231.3,12.54,231.36,13.46Z"/><path d="M242.91.38h3.93V16.63h6.95v3.22H242.91Z"/><path d="M259.24,19.85h-3.6V15.6h3.6Z"/><path d="M261.34,7a10.4,10.4,0,0,1,.74-3.28,5.23,5.23,0,0,1,1.81-2.3,5.77,5.77,0,0,1,3.37-.85,7.31,7.31,0,0,1,2.93.5,4.16,4.16,0,0,1,1.86,1.62,8,8,0,0,1,1,2.91,28.23,28.23,0,0,1,.28,4.35c0,1.34,0,2.63-.13,3.87a10.4,10.4,0,0,1-.74,3.28,4.88,4.88,0,0,1-1.81,2.25,5.93,5.93,0,0,1-3.37.82,8,8,0,0,1-2.92-.46,3.88,3.88,0,0,1-1.87-1.58,8,8,0,0,1-1-2.91,28.23,28.23,0,0,1-.28-4.35C261.21,9.51,261.25,8.22,261.34,7Zm3.89,7.7a7.11,7.11,0,0,0,.34,1.83,1.64,1.64,0,0,0,.65.91,2,2,0,0,0,1,.25,1.67,1.67,0,0,0,1.06-.31,2,2,0,0,0,.64-1.07,8.9,8.9,0,0,0,.33-2c.07-.84.1-1.87.1-3.11V9.08c0-1.22,0-2.21-.1-3A7.11,7.11,0,0,0,269,4.27a1.71,1.71,0,0,0-.65-.92,2.05,2.05,0,0,0-1-.24,1.67,1.67,0,0,0-1.06.31,2,2,0,0,0-.64,1.07,8.8,8.8,0,0,0-.33,2c-.06.84-.1,1.87-.1,3.11v2.1C265.13,12.92,265.17,13.91,265.23,14.68Z"/><path d="M278.77,6.22h-3.85V3.65h.36a5.61,5.61,0,0,0,3.09-.73A3.37,3.37,0,0,0,279.8.55h2.89v19.3h-3.92Z"/><line class="cls-1" x1="208.15" y1="25.88" x2="294.94" y2="25.88"/></g></g></svg>