<svg xmlns="http://www.w3.org/2000/svg" viewBox="0 0 108.06 290.71"><defs><style>.cls-1,.cls-2{fill:blue;}.cls-2{stroke:blue;stroke-linecap:round;stroke-linejoin:round;stroke-width:3.73px;}.cls-3{fill:#fff;}</style></defs><g id="レイヤー_2" data-name="レイヤー 2"><g id="レイヤー_2-2" data-name="レイヤー 2"><path class="cls-1" d="M18.51,4.74H16.92A2.7,2.7,0,0,0,16.78,3,2.34,2.34,0,0,0,14.4,1.71a3.13,3.13,0,0,0-3.47,2.63,2.1,2.1,0,0,0-.06.48A1.37,1.37,0,0,0,12.05,6.2l3.4,1A2.68,2.68,0,0,1,17.6,10a5.59,5.59,0,0,1-.14,1.23A5.12,5.12,0,0,1,14,15.28a7.52,7.52,0,0,1-2.46.44c-2.78,0-4.16-1.22-4.16-3.64a8,8,0,0,1,.18-1.6H9.14a4.87,4.87,0,0,0-.12,1,2.21,2.21,0,0,0,1.28,2.15,3.7,3.7,0,0,0,1.61.33,4.5,4.5,0,0,0,3-1,2.75,2.75,0,0,0,.81-1.53,3.44,3.44,0,0,0,.09-1.21c-.14-.59-.88-1.07-2.21-1.43l-1.79-.48c-.14,0-.39-.14-.76-.29A3.81,3.81,0,0,1,9.69,7.2,2.56,2.56,0,0,1,9.1,5.49a5.06,5.06,0,0,1,.1-.91A5.7,5.7,0,0,1,12,.63,5.15,5.15,0,0,1,14.57,0a4.52,4.52,0,0,1,2.95.77,3.52,3.52,0,0,1,1.11,2.87A5.22,5.22,0,0,1,18.51,4.74Z"/><path class="cls-1" d="M27.59,11.89h1.6a6.22,6.22,0,0,1-2.3,3,4.48,4.48,0,0,1-2.69.75,2.76,2.76,0,0,1-2.86-1.91A5.51,5.51,0,0,1,21,11.83a8,8,0,0,1,.18-1.64,10.34,10.34,0,0,1,.93-2.66,6.4,6.4,0,0,1,3.1-3.16A4.1,4.1,0,0,1,26.92,4,2.65,2.65,0,0,1,29.16,5c.07.1.2.29.37.58a5.67,5.67,0,0,1,.38,2.18,13.29,13.29,0,0,1-.32,2.69H22.83a7.51,7.51,0,0,0-.16,1.39A1.88,1.88,0,0,0,24.75,14a2.93,2.93,0,0,0,2.34-1.23A2.32,2.32,0,0,0,27.59,11.89ZM23.14,9h5.13a5.46,5.46,0,0,0,.13-1.08,2.79,2.79,0,0,0-.23-1.16,1.74,1.74,0,0,0-1.76-1,3.15,3.15,0,0,0-2.59,1.69A4.42,4.42,0,0,0,23.14,9Z"/><path class="cls-1" d="M31.93,15.3,34.25,4.43h1.5L35.41,6A4.2,4.2,0,0,1,37.19,4.5a3.1,3.1,0,0,1,1.49-.36A2.13,2.13,0,0,1,41.1,5.88a4.88,4.88,0,0,1-.05,2L39.48,15.3H37.91l1.44-6.74a4.7,4.7,0,0,0,.12-1.9,1.21,1.21,0,0,0-1.35-.9,2.6,2.6,0,0,0-1.41.4,4.26,4.26,0,0,0-1.9,2.92L33.5,15.3Z"/><path class="cls-1" d="M51.78,7.55H50.27A2.35,2.35,0,0,0,50.33,7c0-.89-.62-1.33-1.86-1.33a2.48,2.48,0,0,0-1.63.56,1.83,1.83,0,0,0-.54,1,2.09,2.09,0,0,0,0,.34.78.78,0,0,0,.08.35.83.83,0,0,0,.39.42l1,.32,1.23.38c.18,0,.44.15.78.27.13.07.3.18.51.32a1.73,1.73,0,0,1,1,1.66,3,3,0,0,1-.08.7,4.25,4.25,0,0,1-2.45,3.19,4.62,4.62,0,0,1-2,.43c-2,0-3.09-.68-3.23-2.05a5.93,5.93,0,0,1,0-1.77h1.53a2.07,2.07,0,0,0,0,.5,2.61,2.61,0,0,0,.23,1.07c.25.44.85.65,1.81.65q2.1,0,2.46-1.71a.92.92,0,0,0-.2-.93A3.27,3.27,0,0,0,48,10.74l-1.28-.34-.62-.21a4,4,0,0,1-.54-.29,1.77,1.77,0,0,1-.88-1.62,3.4,3.4,0,0,1,.08-.69,4,4,0,0,1,2.41-3.07A4.33,4.33,0,0,1,49,4.14q2.64,0,2.88,2.1A3.82,3.82,0,0,1,51.78,7.55Z"/><path class="cls-1" d="M53.89,12.37a4.89,4.89,0,0,1,.62-1.49A4.41,4.41,0,0,1,57.8,9l.85-.06.61,0a3.89,3.89,0,0,0,.51-.1,1.44,1.44,0,0,0,1.3-1.25A2.78,2.78,0,0,0,61.13,7c0-.92-.58-1.38-1.78-1.38a2.39,2.39,0,0,0-2.57,2.12H55.33a4.42,4.42,0,0,1,4.41-3.61c1.45,0,2.4.4,2.84,1.21A2.35,2.35,0,0,1,62.72,7L61.4,13.18a1.37,1.37,0,0,0,0,.38c0,.3.1.47.32.51l.6-.1L62,15.3a2.15,2.15,0,0,1-1.1.21c-.77,0-1.15-.35-1.15-1.06a3.07,3.07,0,0,1,.06-.57,5.13,5.13,0,0,1-3.69,1.75,2.09,2.09,0,0,1-2.21-1.58,3,3,0,0,1-.16-1,2.33,2.33,0,0,1,.06-.53Zm6.7-2.64a2.13,2.13,0,0,1-.92.38L58,10.5c-1.48.35-2.32,1-2.53,2a2.52,2.52,0,0,0-.06.52c0,.74.45,1.1,1.34,1.1A4.11,4.11,0,0,0,59.43,13a2.25,2.25,0,0,0,.74-1.29Z"/><path class="cls-1" d="M65.36,14,67,6.13h-1.2l.37-1.79h1.2l.64-3h1.57l-.63,3h1.52l-.37,1.79H68.62L67.13,13c0,.14,0,.26,0,.36a.75.75,0,0,0,.1.43.54.54,0,0,0,.43.25l.81-.08-.34,1.64L67,15.72c-1.07.07-1.61-.41-1.61-1.44Z"/><path class="cls-1" d="M73.46,4.47h1.62L72.77,15.3H71.15ZM74.32.4h1.62L75.5,2.48H73.89Z"/><path class="cls-1" d="M78.81,7.07q1.69-2.93,4.42-2.93A2.89,2.89,0,0,1,86.16,6a5.17,5.17,0,0,1,.38,2.05,8.25,8.25,0,0,1-.2,1.79,10,10,0,0,1-1,2.77q-1.71,3-4.51,3t-3.16-3A8.58,8.58,0,0,1,78.81,7.07Zm.52,2.78a7.61,7.61,0,0,0-.15,1.8c0,1.59.67,2.38,1.95,2.38s2.27-.78,3-2.33A8.56,8.56,0,0,0,84.87,8q-.06-2.31-2-2.31a3,3,0,0,0-2.44,1.42A7.22,7.22,0,0,0,79.33,9.85Z"/><path class="cls-1" d="M88.45,15.3,90.76,4.43h1.5L91.93,6A4.16,4.16,0,0,1,93.7,4.5a3.14,3.14,0,0,1,1.5-.36,2.13,2.13,0,0,1,2.42,1.74,5.24,5.24,0,0,1-.05,2L96,15.3H94.43l1.44-6.74A4.7,4.7,0,0,0,96,6.66a1.21,1.21,0,0,0-1.35-.9,2.6,2.6,0,0,0-1.41.4,4.23,4.23,0,0,0-1.9,2.92L90,15.3Z"/><path class="cls-2" d="M34,288.85H21.58q-10,0-15.62-4.87T2.42,269.24l6-28.45H19.32l-6.05,28.45a20.35,20.35,0,0,0-.24,2.95q0,7.53,10.44,7.53H36.12q12.63,0,15.43-13.29L73.78,162.05a14.73,14.73,0,0,0,.47-3.64q0-8.72-11.61-8.71h-10q-20.89,0-20.89-14.59a20.79,20.79,0,0,1,.59-4.72l14.3-67.66q1.92-9.06,10.62-14.48a33.21,33.21,0,0,1,17.68-4.68h11.2q20.06,0,20,14.91a20.83,20.83,0,0,1-.7,5.11l-5.8,28H88.94L94.5,64.79A15.58,15.58,0,0,0,95,61.15q.14-8.44-10.15-8.44H72.2q-12.36,0-15,12.11l-13.76,64.4a12.51,12.51,0,0,0-.49,3.24q0,8.1,11.54,8.1h8.88q21.89,0,22,14.9a22.17,22.17,0,0,1-.51,5.75L61.67,269.83a21.45,21.45,0,0,1-10.32,14.3A32,32,0,0,1,34,288.85Z"/><path class="cls-3" d="M34,288.85H21.58q-10,0-15.62-4.87T2.42,269.24l6-28.45H19.32l-6.05,28.45a20.35,20.35,0,0,0-.24,2.95q0,7.53,10.44,7.53H36.12q12.63,0,15.43-13.29L73.78,162.05a14.73,14.73,0,0,0,.47-3.64q0-8.72-11.61-8.71h-10q-20.89,0-20.89-14.59a20.79,20.79,0,0,1,.59-4.72l14.3-67.66q1.92-9.06,10.62-14.48a33.21,33.21,0,0,1,17.68-4.68h11.2q20.06,0,20,14.91a20.83,20.83,0,0,1-.7,5.11l-5.8,28H88.94L94.5,64.79A15.58,15.58,0,0,0,95,61.15q.14-8.44-10.15-8.44H72.2q-12.36,0-15,12.11l-13.76,64.4a12.51,12.51,0,0,0-.49,3.24q0,8.1,11.54,8.1h8.88q21.89,0,22,14.9a22.17,22.17,0,0,1-.51,5.75L61.67,269.83a21.45,21.45,0,0,1-10.32,14.3A32,32,0,0,1,34,288.85Z"/></g></g></svg>