<svg xmlns="http://www.w3.org/2000/svg" viewBox="0 0 19.42 15.78"><g id="レイヤー_2" data-name="レイヤー 2"><g id="レイヤー_2-2" data-name="レイヤー 2"><path d="M19.42,1.87a8.45,8.45,0,0,1-2.29.63A4.05,4.05,0,0,0,18.88.29a7.91,7.91,0,0,1-2.53,1A4,4,0,0,0,9.46,4a3.85,3.85,0,0,0,.1.91A11.33,11.33,0,0,1,1.35.73,4,4,0,0,0,2.58,6.05a3.94,3.94,0,0,1-1.8-.5v0A4,4,0,0,0,4,9.5a3.69,3.69,0,0,1-1,.14,3.67,3.67,0,0,1-.75-.07A4,4,0,0,0,5.9,12.34,8,8,0,0,1,1,14,7.46,7.46,0,0,1,0,14a11.28,11.28,0,0,0,6.11,1.79A11.26,11.26,0,0,0,17.44,4.45c0-.18,0-.35,0-.52A8.12,8.12,0,0,0,19.42,1.87Z"/></g></g></svg>